<svg viewBox="0 0 850 709" fill="none" xmlns="http://www.w3.org/2000/svg">
<path d="M476.042 405.19V576.247L504.442 622.877L506.603 626.424H618.66L620.924 405.19H476.042Z" fill="#E6E6E6"/>
<path opacity="0.1" d="M476.042 405.19V575.998L504.136 622.561L505.86 405.19H476.042Z" fill="black"/>
<path d="M204.168 400.977V571.491L175.631 617.973L173.46 621.508H60.8596L58.5845 400.977H204.168Z" fill="#E6E6E6"/>
<path opacity="0.1" d="M204.168 400.977V571.509L175.413 617.996L173.648 400.977H204.168Z" fill="black"/>
<path d="M654.953 397.519V407.648H44.2012V393.017L100.962 363.753H605.003L654.953 397.519Z" fill="#E6E6E6"/>
<path opacity="0.1" d="M654.953 397.682V407.649H44.2012V393.251L654.953 397.682Z" fill="black"/>
<path d="M131.396 448.734H104.267L92.9634 441.009H143.83L131.396 448.734Z" fill="#3F3D56"/>
<path d="M131.396 481.744H104.267L92.9634 473.667H143.83L131.396 481.744Z" fill="#3F3D56"/>
<path d="M131.396 528.098H104.267L92.9634 520.372H143.83L131.396 528.098Z" fill="#3F3D56"/>
<path d="M131.396 575.154H104.267L92.9634 567.077H143.83L131.396 575.154Z" fill="#3F3D56"/>
<path d="M548.198 453.3H575.515L586.896 444.872H535.679L548.198 453.3Z" fill="#3F3D56"/>
<path d="M548.198 486.661H575.515L586.896 478.584H535.679L548.198 486.661Z" fill="#3F3D56"/>
<path d="M548.198 533.014H575.515L586.896 524.586H535.679L548.198 533.014Z" fill="#3F3D56"/>
<path d="M548.198 579.017H575.515L586.896 571.291H535.679L548.198 579.017Z" fill="#3F3D56"/>
<path d="M566.987 166.048H337.387C336.247 166.048 335.118 166.273 334.064 166.71C333.011 167.147 332.053 167.788 331.247 168.597C330.441 169.405 329.801 170.364 329.365 171.42C328.928 172.476 328.704 173.608 328.704 174.751V329.767C328.704 330.909 328.928 332.041 329.365 333.097C329.801 334.153 330.441 335.113 331.247 335.921C332.053 336.729 333.011 337.37 334.064 337.807C335.118 338.245 336.247 338.47 337.387 338.469H424.545L421.28 359.365C421.28 359.365 402.619 369.301 415.74 369.593C428.861 369.885 490.676 369.593 490.676 369.593C490.676 369.593 502.63 369.593 483.678 359.072L480.606 338.469H566.987C568.128 338.47 569.257 338.245 570.311 337.807C571.364 337.37 572.321 336.729 573.128 335.921C573.934 335.113 574.574 334.153 575.01 333.097C575.446 332.041 575.671 330.909 575.671 329.767V174.751C575.671 173.608 575.446 172.476 575.01 171.42C574.574 170.364 573.934 169.405 573.128 168.597C572.321 167.788 571.364 167.147 570.311 166.71C569.257 166.273 568.128 166.048 566.987 166.048V166.048Z" fill="#3F3D56"/>
<path d="M567.251 175.529H336.772V304.406H567.251V175.529Z" fill="#F2F2F2"/>
<path d="M452.012 173.071C452.69 173.071 453.24 172.363 453.24 171.49C453.24 170.618 452.69 169.91 452.012 169.91C451.334 169.91 450.784 170.618 450.784 171.49C450.784 172.363 451.334 173.071 452.012 173.071Z" fill="#F2F2F2"/>
<path d="M452.187 331.798C455.094 331.798 457.449 329.439 457.449 326.53C457.449 323.621 455.094 321.263 452.187 321.263C449.281 321.263 446.925 323.621 446.925 326.53C446.925 329.439 449.281 331.798 452.187 331.798Z" fill="#F2F2F2"/>
<path d="M443.066 385.082V387.983H286.607V385.662L286.822 385.082L290.679 374.639H439.867L443.066 385.082Z" fill="#3F3D56"/>
<path d="M503.708 382.449C503.426 383.699 502.361 385.017 499.956 386.263C491.326 390.736 473.777 385.07 473.777 385.07C473.777 385.07 460.256 382.685 460.256 376.422C460.636 376.153 461.031 375.909 461.441 375.691C465.07 373.701 477.101 368.791 498.433 375.899C500.004 376.411 501.408 377.364 502.488 378.654C502.966 379.142 503.326 379.74 503.538 380.399C503.75 381.059 503.808 381.762 503.708 382.449Z" fill="#3F3D56"/>
<path opacity="0.1" d="M503.707 382.51C493.023 386.731 483.499 387.046 473.725 380.047C470.029 377.23 465.554 375.711 460.958 375.712C464.628 373.711 476.796 368.771 498.372 375.922C499.962 376.436 501.381 377.395 502.473 378.692C502.957 379.183 503.321 379.785 503.536 380.448C503.75 381.112 503.809 381.818 503.707 382.51Z" fill="black"/>
<path d="M490.25 379.907C492.284 379.907 493.933 379.435 493.933 378.853C493.933 378.271 492.284 377.8 490.25 377.8C488.216 377.8 486.566 378.271 486.566 378.853C486.566 379.435 488.216 379.907 490.25 379.907Z" fill="#F2F2F2"/>
<path opacity="0.1" d="M443.066 385.525V387.984H286.607V386.017L286.822 385.525H443.066Z" fill="black"/>
<path d="M87.4127 55.1067C85.8285 54.975 84.2423 55.334 82.8641 56.1362C81.5108 57.0751 80.6579 58.7199 79.7873 60.2506C76.4585 66.1727 71.9521 71.3299 66.5535 75.3954C62.6212 78.314 57.622 81.9529 58.2947 87.3339C58.6496 89.1109 59.2976 90.8146 60.2114 92.3735C63.839 99.7923 73.738 105.526 72.7643 113.991C76.3684 107.878 71.5477 104.856 75.1517 98.7429C76.8681 95.8319 79.8497 92.5458 82.441 94.374C83.3087 94.9861 83.8784 96.084 84.7819 96.6211C86.9375 97.9027 89.2309 95.4526 91.1391 93.7171C97.719 87.7328 107.076 89.3005 115.264 91.1651C119.13 92.0454 123.376 93.2003 125.661 96.9433C128.666 101.865 122.807 107.18 121.326 112.744C121.205 113.218 121.2 113.715 121.31 114.191C121.419 114.668 121.642 115.111 121.957 115.482C122.273 115.853 122.673 116.141 123.122 116.321C123.571 116.501 124.057 116.568 124.538 116.517C126.995 116.271 129.905 116.07 130.051 114.978C133.142 115.089 136.929 114.735 138.254 111.474C138.658 110.184 138.872 108.84 138.889 107.486C139.375 102.008 141.669 97.011 143.19 91.7975C144.71 86.584 145.371 80.4741 142.805 75.8518C141.89 74.3138 140.757 72.9196 139.444 71.7131C124.886 57.4395 105.745 55.0855 87.4127 55.1067Z" fill="#2F2E41"/>
<path d="M75.71 124.378C75.71 124.378 78.8911 150.799 67.2268 152.913C55.5625 155.027 77.8307 190.96 77.8307 190.96L130.85 197.301L118.126 155.027C118.126 155.027 109.643 151.856 114.945 130.719C120.246 109.581 75.71 124.378 75.71 124.378Z" fill="#FFB8B8"/>
<path d="M43.1489 580.421L47.4152 638.363H69.8101L63.4121 580.421H43.1489Z" fill="#FFB8B8"/>
<path d="M206.624 469.819L209.862 518.616L234.688 508.008L224.973 467.697L206.624 469.819Z" fill="#FFB8B8"/>
<path d="M27.7134 357.452C27.7134 357.452 28.7748 418.922 35.1433 439.059C41.5118 459.196 40.4503 460.256 39.3889 463.436C38.3275 466.615 37.2661 464.496 37.2661 469.795C37.2661 475.094 35.1433 558.822 37.2661 566.241C39.3889 573.66 30.8976 586.378 37.2661 587.437C43.6345 588.497 73.354 587.438 74.4154 581.078C75.4768 574.719 65.9242 572.6 70.1698 568.36C74.4154 564.121 80.7839 477.214 80.7839 477.214L95.6436 416.803L123.24 385.007H181.618L199.662 454.957C199.662 454.957 192.232 475.094 197.539 475.094C202.846 475.094 234.688 481.453 234.688 458.137C234.688 434.82 224.074 365.93 221.951 363.811C219.829 361.691 223.013 354.272 219.828 351.093C216.644 347.913 179.495 325.656 165.697 321.417C151.898 317.178 132.542 312.132 132.542 312.132L27.7134 357.452Z" fill="#2F2E41"/>
<path d="M234.085 499.444C234.085 499.444 218.227 494.165 210.827 510.003C203.426 525.842 206.598 530.066 206.598 530.066C206.598 530.066 230.913 538.513 235.142 534.289C236.982 532.452 242.824 531.813 248.838 531.678C257.997 531.473 260.434 518.531 251.784 515.517C251.526 515.427 251.264 515.349 251 515.283C242.543 513.171 234.085 499.444 234.085 499.444Z" fill="#2F2E41"/>
<path d="M99.804 141.818C117.338 141.818 131.552 127.589 131.552 110.037C131.552 92.4854 117.338 78.2568 99.804 78.2568C82.2701 78.2568 68.0562 92.4854 68.0562 110.037C68.0562 127.589 82.2701 141.818 99.804 141.818Z" fill="#FFB8B8"/>
<path d="M58.124 166.471C58.124 166.471 110.165 177.078 122.91 160.106C135.655 143.134 140.965 207.839 140.965 207.839L147.338 275.726L137.779 312.852C137.779 312.852 87.862 353.16 71.9309 356.342C55.9999 359.524 31.5723 361.646 31.5723 361.646C31.5723 361.646 39.0068 243.904 39.0068 241.783C39.0068 239.661 58.124 166.471 58.124 166.471Z" fill="#F9E9FF"/>
<path d="M74.258 146.593C74.258 146.593 62.7331 139.975 59.5617 146.333C56.3904 152.69 26.7908 168.584 23.6194 168.584C20.448 168.584 29.9622 256.529 25.7337 267.125C21.5051 277.721 1.41973 355.07 13.0481 361.427C24.6765 367.785 16.2195 355.07 27.8479 370.964C39.4763 386.857 96.5612 386.857 99.7326 380.5C102.904 374.142 74.3615 326.461 79.6472 281.959C84.9328 237.457 93.3898 176.001 85.9899 167.525C78.59 159.048 74.258 146.593 74.258 146.593Z" fill="#2F2E41"/>
<path d="M112.257 153.563L113.742 148.489C113.742 148.489 158.09 163.09 160.222 172.617C162.353 182.144 161.287 248.831 153.826 254.124C146.365 259.417 135.706 267.885 143.168 280.587C150.629 293.29 159.156 307.051 165.551 308.109C171.946 309.168 183.671 316.578 180.473 323.987C177.275 331.397 138.904 317.636 138.904 317.636C138.904 317.636 113.323 298.582 114.389 268.943C115.455 239.305 112.257 153.563 112.257 153.563Z" fill="#2F2E41"/>
<path d="M149.546 278.771L123.957 326.381C123.957 326.381 86.6404 364.469 107.964 368.701C129.288 372.933 141.016 333.787 141.016 333.787L168.737 294.641L149.546 278.771Z" fill="#FFB8B8"/>
<path d="M88.6267 63.8791C87.333 63.7843 86.0371 64.0329 84.8731 64.5992C83.8206 65.3595 82.9532 66.3428 82.3341 67.4772C79.4805 71.723 75.7607 75.3315 71.4136 78.071C68.1687 80.1125 64.0433 82.658 64.5985 86.422C64.8998 87.684 65.4362 88.8794 66.1801 89.9471C69.1839 95.1891 70.3797 101.256 69.5866 107.23L78.5089 94.4026C79.9253 92.3663 82.3857 90.0677 84.5241 91.3465C85.2401 91.7747 85.7102 92.5427 86.4557 92.9184C88.2346 93.8148 90.1271 92.101 91.7017 90.887C97.1315 86.701 104.853 87.7976 111.61 89.1019C114.8 89.7177 118.304 90.5255 120.189 93.1438C123.323 97.4948 120.051 103.782 121.88 108.808C122.392 108.454 122.827 108.001 123.158 107.477C123.49 106.954 123.712 106.369 123.812 105.759C126.362 105.837 129.488 105.589 130.581 103.308C130.913 102.414 131.09 101.471 131.105 100.518C131.506 96.6867 133.4 93.191 134.654 89.5442C135.908 85.8974 136.454 81.6235 134.337 78.3902C133.562 77.2947 132.628 76.319 131.563 75.4952C119.55 65.5108 103.754 63.8643 88.6267 63.8791Z" fill="#2F2E41"/>
<path d="M149.855 168.154L159.731 170.78C159.731 170.78 182.716 229.722 177.415 270.059C172.115 310.397 168.935 301.905 168.935 301.905C168.935 301.905 160.455 282.797 141.375 287.043L149.855 168.154Z" fill="#2F2E41"/>
<path d="M44.9575 630.577C42.426 634.053 42.9336 639.021 40.6912 642.694C38.7475 645.878 35.0843 647.547 32.6531 650.368C31.8773 651.305 31.1857 652.311 30.5865 653.372C28.3312 657.189 26.4981 662.081 28.7192 665.918C30.506 669.005 34.2618 670.211 37.7063 671.034C42.0599 672.073 46.5834 672.905 50.9872 672.111C55.3911 671.316 59.6951 668.592 61.2653 664.359C61.5739 663.295 61.9408 662.249 62.3643 661.226C64.7512 656.478 72.2382 656.427 74.6811 651.708C76.3906 648.406 74.8191 644.414 73.2483 641.042L68.4505 630.743C66.8583 627.326 60.404 629.291 57.0392 628.472C52.6507 627.404 48.1145 626.227 44.9575 630.577Z" fill="#2F2E41"/>
<path d="M9.47168 299.901L53.9633 368.93C53.9633 368.93 81.5058 403.975 89.9804 388.046C98.455 372.116 60.3193 345.566 60.3193 345.566L31.7175 292.467L9.47168 299.901Z" fill="#FFB8B8"/>
<path d="M31.7324 170.277L23.2289 168.154C23.2289 168.154 6.22197 173.46 1.97024 195.743C-2.2815 218.026 0.907297 307.159 6.22197 308.22C11.5366 309.281 32.4711 292.7 35.822 296.215C39.173 299.731 28.5436 281.692 31.7324 272.142C34.9212 262.592 31.7324 170.277 31.7324 170.277Z" fill="#2F2E41"/>
<path d="M430.24 217.926H402.849V224.526H430.24V217.926Z" fill="#72419F"/>
<path d="M525.097 217.926H515.459V224.526H525.097V217.926Z" fill="#72419F"/>
<path d="M544.372 217.926H534.734V224.526H544.372V217.926Z" fill="#72419F"/>
<path d="M505.313 217.926H439.878V224.526H505.313V217.926Z" fill="#72419F"/>
<path d="M395.747 260.571H368.355V267.171H395.747V260.571Z" fill="#72419F"/>
<path d="M490.603 260.571H480.965V267.171H490.603V260.571Z" fill="#72419F"/>
<path d="M509.879 260.571H500.241V267.171H509.879V260.571Z" fill="#72419F"/>
<path d="M470.82 260.571H405.385V267.171H470.82V260.571Z" fill="#72419F"/>
<path d="M508.864 232.648H481.473V239.248H508.864V232.648Z" fill="#72419F"/>
<path d="M545.893 232.648H518.502V239.248H545.893V232.648Z" fill="#72419F"/>
<path d="M377.993 232.648H368.355V239.248H377.993V232.648Z" fill="#72419F"/>
<path d="M397.269 232.648H387.631V239.248H397.269V232.648Z" fill="#72419F"/>
<path d="M472.342 232.648H406.907V239.248H472.342V232.648Z" fill="#72419F"/>
<path d="M452.052 246.863H424.66V253.463H452.052V246.863Z" fill="#72419F"/>
<path d="M415.022 246.863H387.631V253.463H415.022V246.863Z" fill="#72419F"/>
<path d="M377.993 246.863H368.355V253.463H377.993V246.863Z" fill="#72419F"/>
<path d="M545.894 246.863H536.256V253.463H545.894V246.863Z" fill="#72419F"/>
<path d="M526.618 246.863H461.183V253.463H526.618V246.863Z" fill="#72419F"/>
<path d="M621.588 388.126C622.745 386.973 623.635 385.579 624.197 384.044C624.758 382.508 624.976 380.868 624.837 379.239C624.697 377.61 624.202 376.031 623.388 374.615C622.573 373.198 621.458 371.977 620.122 371.038L638.345 282.676L618.684 288.89L604.023 374.374C602.598 376.728 602.084 379.523 602.579 382.231C603.074 384.939 604.544 387.371 606.709 389.066C608.874 390.762 611.584 391.602 614.327 391.429C617.069 391.256 619.652 390.08 621.588 388.126V388.126Z" fill="#FFB6B6"/>
<path d="M663.801 151.587L651.603 142.363C651.603 142.363 640.843 141.6 638.938 161.04C637.032 180.48 625.1 255.089 625.1 255.089L606.435 341.693L632.272 347.375L652.263 253.913L672.275 189.434L663.801 151.587Z" fill="#2F2E41"/>
<path d="M654.336 312.083L595.601 266.356C594.686 265.642 594.092 264.594 593.947 263.441C593.803 262.289 594.122 261.126 594.833 260.209L634.795 208.748C635.508 207.832 636.555 207.237 637.706 207.093C638.857 206.948 640.018 207.267 640.935 207.979L699.669 253.706C700.584 254.42 701.179 255.468 701.323 256.621C701.467 257.773 701.149 258.935 700.438 259.853L660.475 311.314C659.762 312.23 658.715 312.825 657.564 312.969C656.413 313.114 655.252 312.795 654.336 312.083V312.083Z" fill="#3F3D56"/>
<path d="M654.241 307.334L600.265 265.501C599.449 264.867 598.919 263.937 598.791 262.914C598.662 261.892 598.946 260.86 599.58 260.045L635.959 213.411C636.595 212.598 637.528 212.069 638.554 211.941C639.58 211.813 640.615 212.096 641.433 212.728L695.409 254.561C696.225 255.195 696.755 256.125 696.883 257.148C697.012 258.171 696.728 259.202 696.094 260.017L659.715 306.651C659.079 307.464 658.146 307.993 657.12 308.121C656.094 308.249 655.059 307.966 654.241 307.334V307.334Z" fill="white"/>
<path d="M607.221 264.275C607.014 264.117 606.879 263.884 606.847 263.628C606.814 263.372 606.886 263.114 607.047 262.911L625.669 239.379C625.83 239.176 626.067 239.043 626.327 239.011C626.456 238.996 626.587 239.005 626.712 239.039C626.837 239.072 626.955 239.13 627.057 239.209C627.16 239.287 627.246 239.384 627.31 239.495C627.374 239.606 627.415 239.729 627.432 239.855C627.448 239.982 627.438 240.111 627.404 240.234C627.369 240.357 627.311 240.472 627.231 240.573L608.609 264.104C608.448 264.308 608.211 264.44 607.951 264.472C607.691 264.504 607.428 264.433 607.221 264.275V264.275Z" fill="#E4E4E4"/>
<path d="M610.444 266.704C610.242 266.548 610.11 266.319 610.078 266.067C610.046 265.816 610.117 265.562 610.274 265.361L628.531 242.203C628.689 242.003 628.921 241.873 629.176 241.841C629.431 241.81 629.689 241.88 629.892 242.035C630.095 242.191 630.227 242.42 630.259 242.672C630.291 242.924 630.22 243.178 630.062 243.378L611.806 266.536C611.648 266.736 611.416 266.866 611.16 266.897C610.905 266.929 610.648 266.859 610.444 266.704Z" fill="#E4E4E4"/>
<path d="M624.172 255.784C623.972 255.625 623.843 255.393 623.811 255.137C623.78 254.882 623.849 254.624 624.004 254.421L631.789 244.233C631.866 244.132 631.962 244.047 632.071 243.984C632.18 243.921 632.3 243.88 632.424 243.864C632.549 243.848 632.675 243.857 632.796 243.891C632.917 243.925 633.03 243.983 633.129 244.061C633.228 244.139 633.311 244.237 633.373 244.348C633.435 244.459 633.475 244.581 633.491 244.708C633.506 244.834 633.497 244.963 633.463 245.086C633.43 245.209 633.373 245.324 633.296 245.425L625.511 255.613C625.355 255.816 625.127 255.948 624.876 255.98C624.625 256.012 624.372 255.941 624.172 255.784V255.784Z" fill="#E4E4E4"/>
<path d="M628.211 275.598C628.012 275.441 627.882 275.21 627.85 274.956C627.819 274.702 627.889 274.446 628.044 274.243L656.428 237.354C656.505 237.254 656.601 237.17 656.71 237.108C656.819 237.045 656.939 237.005 657.064 236.989C657.188 236.973 657.314 236.982 657.435 237.016C657.556 237.05 657.669 237.107 657.768 237.185C657.867 237.262 657.95 237.359 658.012 237.469C658.075 237.58 658.114 237.701 658.13 237.827C658.146 237.953 658.136 238.08 658.103 238.203C658.07 238.325 658.013 238.439 657.936 238.539L629.552 275.429C629.396 275.63 629.168 275.762 628.916 275.793C628.665 275.825 628.412 275.755 628.211 275.598V275.598Z" fill="#E4E4E4"/>
<path d="M631.044 277.621C630.841 277.463 630.71 277.232 630.678 276.978C630.646 276.724 630.717 276.468 630.874 276.266L659.636 239.377C659.714 239.277 659.811 239.193 659.922 239.13C660.032 239.067 660.154 239.027 660.28 239.011C660.406 238.996 660.534 239.005 660.657 239.038C660.78 239.072 660.894 239.129 660.995 239.207C661.095 239.285 661.179 239.382 661.242 239.492C661.305 239.602 661.345 239.724 661.361 239.849C661.377 239.975 661.368 240.103 661.334 240.225C661.3 240.347 661.243 240.462 661.165 240.562L632.402 277.451C632.245 277.653 632.013 277.784 631.758 277.816C631.504 277.848 631.247 277.778 631.044 277.621V277.621Z" fill="#E4E4E4"/>
<path d="M637.512 283.282C637.307 283.124 637.173 282.893 637.141 282.639C637.109 282.385 637.18 282.129 637.339 281.927L666.48 245.038C666.559 244.938 666.658 244.854 666.77 244.791C666.882 244.729 667.005 244.688 667.133 244.673C667.261 244.657 667.39 244.666 667.515 244.7C667.639 244.733 667.755 244.79 667.857 244.868C667.958 244.946 668.043 245.043 668.107 245.153C668.171 245.263 668.212 245.385 668.228 245.511C668.244 245.636 668.234 245.764 668.2 245.886C668.166 246.008 668.108 246.123 668.029 246.223L638.888 283.112C638.728 283.314 638.493 283.445 638.235 283.477C637.977 283.509 637.717 283.439 637.512 283.282V283.282Z" fill="#E4E4E4"/>
<path d="M640.743 285.305C640.538 285.15 640.404 284.921 640.372 284.67C640.34 284.418 640.411 284.165 640.571 283.965L669.711 247.46C669.791 247.361 669.889 247.278 670.001 247.216C670.113 247.154 670.236 247.114 670.364 247.098C670.492 247.083 670.621 247.092 670.746 247.125C670.87 247.158 670.986 247.215 671.088 247.292C671.189 247.369 671.275 247.465 671.338 247.574C671.402 247.683 671.443 247.803 671.459 247.928C671.475 248.052 671.466 248.178 671.431 248.299C671.397 248.42 671.339 248.534 671.26 248.633L642.119 285.137C641.959 285.337 641.725 285.467 641.467 285.499C641.209 285.53 640.948 285.461 640.743 285.305V285.305Z" fill="#E4E4E4"/>
<path d="M647.605 290.563C647.402 290.407 647.271 290.179 647.239 289.927C647.207 289.676 647.277 289.423 647.435 289.223L676.197 252.718C676.275 252.619 676.372 252.536 676.483 252.474C676.593 252.412 676.715 252.372 676.841 252.356C676.967 252.34 677.095 252.35 677.218 252.383C677.34 252.416 677.455 252.473 677.555 252.55C677.656 252.627 677.74 252.723 677.803 252.832C677.865 252.941 677.906 253.061 677.922 253.185C677.937 253.31 677.928 253.436 677.895 253.557C677.861 253.678 677.803 253.791 677.725 253.89L648.963 290.395C648.805 290.595 648.574 290.725 648.319 290.756C648.064 290.788 647.807 290.718 647.605 290.563Z" fill="#E4E4E4"/>
<path d="M650.831 293.391C650.631 293.234 650.502 293.003 650.47 292.749C650.439 292.495 650.508 292.238 650.663 292.036L679.049 255.145C679.205 254.944 679.433 254.813 679.684 254.782C679.935 254.75 680.188 254.821 680.388 254.978C680.587 255.135 680.717 255.365 680.749 255.618C680.781 255.872 680.712 256.128 680.557 256.33L652.172 293.222C652.016 293.423 651.788 293.555 651.536 293.586C651.285 293.618 651.031 293.548 650.831 293.391V293.391Z" fill="#E4E4E4"/>
<path d="M602.8 336.457C603.023 336.457 603.204 336.276 603.204 336.053C603.204 335.829 603.023 335.648 602.8 335.648C602.577 335.648 602.396 335.829 602.396 336.053C602.396 336.276 602.577 336.457 602.8 336.457Z" fill="white"/>
<path d="M660.646 62.2354C659.249 69.7536 656.958 77.0773 653.822 84.0499C635.866 122.098 687.002 109.696 705.275 109.696C725.255 109.696 744.372 120.22 741.452 73.4599C740.205 53.4862 725.255 37.2236 705.275 37.2236C688.209 37.2236 664.215 44.8217 660.646 62.2354Z" fill="#2F2E41"/>
<path d="M723.976 619.92H706.734L698.53 554.816H723.976V619.92Z" fill="#FFB6B6"/>
<path d="M733.267 649.844H721.027L718.842 638.295L713.247 649.844H680.784C679.228 649.844 677.712 649.347 676.459 648.425C675.206 647.504 674.28 646.206 673.817 644.721C673.354 643.236 673.378 641.643 673.885 640.172C674.392 638.702 675.357 637.433 676.637 636.549L702.561 618.656V606.98L729.828 608.607L733.267 649.844Z" fill="#2F2E41"/>
<path d="M825.361 598.871L811.599 609.002L765.58 561.277L785.891 546.324L825.361 598.871Z" fill="#FFB6B6"/>
<path d="M850 617.047L840.186 624.359L831.545 616.381L833.948 629.007L807.921 648.4C806.673 649.33 805.162 649.835 803.607 649.843C802.052 649.851 800.535 649.361 799.278 648.444C798.021 647.528 797.09 646.232 796.62 644.747C796.15 643.262 796.165 641.666 796.665 640.191L806.775 610.32L799.81 600.935L822.643 585.953L850 617.047Z" fill="#2F2E41"/>
<path d="M667.831 317.451L749.423 304.839L733.198 256.392H667.831V317.451Z" fill="#FFB6B6"/>
<path d="M743.534 281.058C743.534 281.058 775.789 308.99 760.907 388.618L742.738 466.639L792.239 552.781L767.069 566.542L706.067 481.56L678.153 415.93L663.388 300.906L743.534 281.058Z" fill="#2F2E41"/>
<path d="M693.621 434.313L691.663 464.611L697.396 554.327L725.857 564.116L731.247 472.193L693.621 434.313Z" fill="#2F2E41"/>
<path d="M684.968 119.715L716.397 120.934L728.923 141.613L757.502 147.161L740.441 232.997L743.579 281.854L715.122 281.682C694.614 281.557 674.781 288.967 659.428 302.49V302.49L660.279 239.07L648.039 191.727L650.79 142.086L673.781 139.228L684.968 119.715Z" fill="#2F2E41"/>
<path d="M702.165 109.605C718.45 109.605 731.651 96.3892 731.651 80.0863C731.651 63.7835 718.45 50.5674 702.165 50.5674C685.88 50.5674 672.678 63.7835 672.678 80.0863C672.678 96.3892 685.88 109.605 702.165 109.605Z" fill="#FFB6B6"/>
<path d="M682.375 50.2279C687.536 47.0909 693.447 45.3939 699.49 45.3144C705.534 45.235 711.488 46.776 716.73 49.7763C721.972 52.7766 726.309 57.1261 729.288 62.3698C732.267 67.6136 733.778 73.559 733.664 79.5846C718.657 83.3415 702.892 86.2165 686.888 80.4832L683.109 71.2602L680.881 80.49C676.007 82.4763 671.121 84.1569 666.234 80.4708C666.035 74.4623 667.421 68.5068 670.253 63.1996C673.085 57.8924 677.265 53.4195 682.375 50.2279Z" fill="#2F2E41"/>
<path d="M751.637 341.348L755.593 377.424C755.868 378.325 756.424 379.112 757.178 379.672C757.931 380.231 758.844 380.533 759.781 380.533H778.016C778.954 380.533 779.866 380.231 780.62 379.672C781.374 379.112 781.93 378.325 782.205 377.424L785.482 349.773C786.428 350.239 787.47 350.473 788.523 350.455C789.576 350.437 790.61 350.169 791.54 349.671C792.47 349.174 793.269 348.462 793.871 347.593C794.473 346.725 794.862 345.725 795.005 344.677C795.148 343.628 795.041 342.56 794.694 341.561C794.346 340.562 793.767 339.66 793.005 338.929C792.243 338.199 791.319 337.66 790.31 337.359C789.3 337.057 788.234 337 787.198 337.193C786.789 336.708 786.28 336.318 785.705 336.051C785.131 335.784 784.506 335.647 783.873 335.648H755.826C755.14 335.648 754.464 335.81 753.851 336.121C753.239 336.431 752.708 336.882 752.3 337.436C751.893 337.99 751.621 338.633 751.505 339.312C751.39 339.992 751.435 340.689 751.637 341.348V341.348ZM786.054 347.903L788.061 341.348C788.294 340.591 788.317 339.785 788.128 339.017C788.214 339.012 788.294 338.991 788.381 338.991C789.641 338.991 790.85 339.494 791.741 340.389C792.632 341.285 793.133 342.499 793.133 343.766C793.133 345.032 792.632 346.247 791.741 347.142C790.85 348.038 789.641 348.541 788.381 348.541C787.564 348.536 786.761 348.316 786.054 347.903V347.903Z" fill="#72419F"/>
<path d="M779.421 380.406C778.266 379.248 777.381 377.852 776.826 376.315C776.271 374.779 776.06 373.139 776.209 371.513C776.357 369.886 776.861 368.312 777.685 366.901C778.509 365.489 779.632 364.276 780.977 363.345L763.157 274.992L782.836 281.299L797.1 366.759C798.517 369.117 799.017 371.912 798.507 374.614C797.997 377.317 796.512 379.738 794.333 381.421C792.154 383.103 789.432 383.929 786.683 383.742C783.935 383.554 781.351 382.368 779.421 380.406V380.406Z" fill="#FFB6B6"/>
<path d="M745.024 156.422L757.296 147.216C757.296 147.216 768.122 146.454 770.04 165.856C771.957 185.257 783.962 259.719 783.962 259.719L802.741 346.153L776.746 351.823L756.632 258.546L736.498 194.194L745.024 156.422Z" fill="#2F2E41"/>
<path d="M639.557 236.982C643.349 236.982 646.423 233.904 646.423 230.108C646.423 226.311 643.349 223.233 639.557 223.233C635.764 223.233 632.69 226.311 632.69 230.108C632.69 233.904 635.764 236.982 639.557 236.982Z" fill="#72419F"/>
</svg>
