<svg viewBox="0 0 700 840" fill="none" xmlns="http://www.w3.org/2000/svg">
<path d="M5.00423 401.761C7.57627 406.039 11.0588 409.704 15.2067 412.497C19.3545 415.29 24.0666 417.143 29.0112 417.925C33.9558 418.708 39.0125 418.401 43.8252 417.027C48.6379 415.653 53.0895 413.244 56.8665 409.97L162.437 470.28L158.502 407.409L58.8541 359.776C52.9125 353.821 44.984 350.243 36.571 349.721C28.158 349.199 19.8451 351.769 13.2074 356.944C6.56969 362.119 2.06841 369.54 0.556516 377.8C-0.955377 386.06 0.627153 394.585 5.00423 401.761Z" fill="#FFB8B8"/>
<path d="M310.64 643.362C279.325 687.02 280.445 760.06 289.182 840H437.243L443.68 825.038L452.264 840H591.741C591.741 840 581.012 636.95 561.7 630.537C542.388 624.125 310.64 643.362 310.64 643.362Z" fill="#2F2E41"/>
<path d="M437.242 187.231C478.72 187.231 512.345 153.738 512.345 112.423C512.345 71.1073 478.72 37.6146 437.242 37.6146C395.764 37.6146 362.139 71.1073 362.139 112.423C362.139 153.738 395.764 187.231 437.242 187.231Z" fill="#FFB8B8"/>
<path d="M491.525 206.639L506.212 234.679L607.796 279.785L581.093 537.179L569.855 563.833L575.927 586.98L561.287 604.063C575.982 617.307 577.849 631.171 569.855 645.512L523.075 656.186C523.075 656.186 262.969 679.224 284.89 639.087C308.841 595.232 314.941 465.714 262.066 396.502C217.176 337.744 251.639 261.498 251.639 261.498L358.119 229.802L397.284 206.639L491.525 206.639Z" fill="#3F3D56"/>
<path d="M470.586 2.84063C470.939 2.09684 471.507 1.47511 472.217 1.05527C472.927 0.635426 473.747 0.436647 474.572 0.484468C440.188 -1.56418 403.971 2.42758 375.206 21.3008C368.237 25.8732 361.666 31.327 354.083 34.6439C353.725 34.8041 353.415 35.0538 353.182 35.3687C352.95 35.6836 352.803 36.053 352.757 36.441C352.71 36.8291 352.765 37.2226 352.916 37.5834C353.067 37.9441 353.309 38.2598 353.618 38.4998L354.451 39.1504C354.78 39.4071 355.032 39.7487 355.179 40.1379C355.326 40.5271 355.364 40.9491 355.287 41.3581C355.21 41.767 355.023 42.1471 354.744 42.4572C354.466 42.7672 354.107 42.9953 353.708 43.1166C353.291 43.243 352.92 43.4854 352.637 43.8151C352.354 44.1448 352.172 44.5481 352.112 44.9775C352.052 45.407 352.116 45.8446 352.297 46.239C352.478 46.6333 352.768 46.9678 353.134 47.2032L359.517 51.3124C359.839 51.5157 360.104 51.7962 360.288 52.1281C360.472 52.46 360.57 52.8327 360.572 53.212C360.574 53.5913 360.481 53.965 360.3 54.2989C360.119 54.6328 359.857 54.9162 359.538 55.123C358.997 55.4556 358.429 55.7423 357.841 55.9802C357.474 56.1173 357.149 56.3461 356.898 56.6446C356.646 56.9431 356.475 57.3011 356.403 57.6842C356.33 58.0674 356.358 58.4627 356.483 58.832C356.609 59.2014 356.827 59.5323 357.118 59.793C359.883 62.244 362.003 65.3313 363.294 68.7857C365.422 74.2957 365.804 80.2966 366.163 86.1891C368.362 77.6868 377.678 72.682 386.477 72.1734C395.277 71.6649 403.859 74.5569 412.423 76.6358C431.076 81.1507 450.448 81.893 469.393 78.8188C462.96 91.6787 468.387 107.018 473.848 120.316L491.525 112.77C515.802 99.1195 498.891 156.861 489.815 164.788C508.347 171.188 556.851 100.16 541.248 73.217C533.131 59.2019 538.892 41.1257 522.935 27.8333C515.113 19.6323 499.498 23.2774 491.525 16.4614C488.387 13.7787 493.17 6.60159 488.857 5.03746C487.425 4.51794 470.823 2.31703 470.586 2.84063Z" fill="#2F2E41"/>
<path d="M343.371 237.044C329.59 297.986 294.244 440.278 258.383 470.036C256.109 472.175 253.382 473.779 250.404 474.73C124.354 505.317 83.9648 427.295 83.9648 427.295C83.9648 427.295 117.745 410.898 118.601 378.848L186.724 399.902L246.108 266.789L254.846 258.67L254.895 258.622L343.371 237.044Z" fill="#3F3D56"/>
<path d="M612.13 799.816C615.74 796.36 618.544 792.158 620.347 787.505C622.15 782.853 622.906 777.863 622.563 772.888C622.22 767.913 620.786 763.073 618.363 758.709C615.939 754.346 612.584 750.565 608.534 747.632L643.871 631.632L583.24 649.548L558.979 756.957C554.485 764.06 552.762 772.559 554.137 780.842C555.513 789.126 559.892 796.619 566.443 801.902C572.995 807.185 581.264 809.89 589.685 809.506C598.105 809.122 606.091 805.674 612.13 799.816V799.816Z" fill="#FFB8B8"/>
<path d="M579.788 273.295L607.795 279.785C607.795 279.785 723.557 504.132 695.662 546.879C667.766 589.627 633.592 731.152 633.592 731.152C633.592 731.152 583.047 721.143 563.735 695.495L599.1 527.643L562.621 386.576L579.788 273.295Z" fill="#3F3D56"/>
<path d="M48.4414 606.444L49.4471 245.119C49.4758 237.806 52.4156 230.803 57.6217 225.646C62.8277 220.489 69.8748 217.599 77.2169 217.611L351.175 218.368C358.517 218.396 365.548 221.325 370.725 226.51C375.902 231.696 378.803 238.715 378.791 246.028L377.785 607.353C377.756 614.666 374.817 621.67 369.611 626.826C364.405 631.983 357.357 634.873 350.015 634.861L76.0576 634.104C68.7156 634.076 61.6847 631.147 56.5074 625.962C51.3302 620.776 48.4294 613.757 48.4414 606.444V606.444Z" fill="#E6E6E6"/>
<path d="M69.7599 497.366L70.4065 265.074C70.4332 258.225 73.1864 251.666 78.062 246.837C82.9376 242.007 89.5375 239.301 96.4136 239.313L331.857 239.963C338.733 239.989 345.318 242.732 350.167 247.588C355.016 252.444 357.733 259.018 357.722 265.868L356.827 587.397C356.8 594.247 354.047 600.805 349.171 605.635C344.295 610.465 337.695 613.17 330.819 613.159L184.966 612.756C154.337 612.637 125.007 600.422 103.409 578.79C81.811 557.157 69.7097 527.875 69.7599 497.366V497.366Z" fill="white"/>
<path d="M304.878 341.349H121.292C118.371 341.349 115.569 340.193 113.504 338.135C111.438 336.078 110.277 333.287 110.277 330.377C110.277 327.467 111.438 324.677 113.504 322.619C115.569 320.561 118.371 319.405 121.292 319.405H304.878C307.8 319.405 310.601 320.561 312.667 322.619C314.733 324.677 315.893 327.467 315.893 330.377C315.893 333.287 314.733 336.078 312.667 338.135C310.601 340.193 307.8 341.349 304.878 341.349V341.349Z" fill="#72419F"/>
<path d="M161.681 290.757H121.292C118.371 290.757 115.569 289.601 113.504 287.543C111.438 285.486 110.277 282.695 110.277 279.785C110.277 276.875 111.438 274.084 113.504 272.027C115.569 269.969 118.371 268.813 121.292 268.813H161.681C164.603 268.813 167.404 269.969 169.47 272.027C171.536 274.084 172.696 276.875 172.696 279.785C172.696 282.695 171.536 285.486 169.47 287.543C167.404 289.601 164.603 290.757 161.681 290.757Z" fill="#72419F"/>
<path d="M304.878 391.941H121.292C118.371 391.941 115.569 390.785 113.504 388.728C111.438 386.67 110.277 383.879 110.277 380.969C110.277 378.06 111.438 375.269 113.504 373.211C115.569 371.154 118.371 369.998 121.292 369.998H304.878C307.8 369.998 310.601 371.154 312.667 373.211C314.733 375.269 315.893 378.06 315.893 380.969C315.893 383.879 314.733 386.67 312.667 388.728C310.601 390.785 307.8 391.941 304.878 391.941Z" fill="#72419F"/>
<path d="M304.878 442.534H121.292C118.371 442.534 115.569 441.378 113.504 439.32C111.438 437.262 110.277 434.472 110.277 431.562C110.277 428.652 111.438 425.861 113.504 423.803C115.569 421.746 118.371 420.59 121.292 420.59H304.878C307.8 420.59 310.601 421.746 312.667 423.803C314.733 425.861 315.893 428.652 315.893 431.562C315.893 434.472 314.733 437.262 312.667 439.32C310.601 441.378 307.8 442.534 304.878 442.534V442.534Z" fill="#72419F"/>
<path d="M196.564 133.494C208.055 133.494 217.371 124.215 217.371 112.769C217.371 101.324 208.055 92.0449 196.564 92.0449C185.073 92.0449 175.758 101.324 175.758 112.769C175.758 124.215 185.073 133.494 196.564 133.494Z" fill="#F2F2F2"/>
<path d="M120.681 729.629C132.172 729.629 141.488 720.351 141.488 708.905C141.488 697.459 132.172 688.18 120.681 688.18C109.19 688.18 99.875 697.459 99.875 708.905C99.875 720.351 109.19 729.629 120.681 729.629Z" fill="#F2F2F2"/>
<path d="M599.228 213.954C610.719 213.954 620.035 204.675 620.035 193.229C620.035 181.784 610.719 172.505 599.228 172.505C587.737 172.505 578.422 181.784 578.422 193.229C578.422 204.675 587.737 213.954 599.228 213.954Z" fill="#F2F2F2"/>
<path d="M315.518 532.134C315.518 557.249 295.078 577.609 269.864 577.609C244.649 577.609 224.209 557.249 224.209 532.134C224.209 507.019 244.649 486.659 269.864 486.659C295.077 486.659 315.518 507.019 315.518 532.134" fill="#72419F"/>
<g opacity="0.8">
<path d="M269.719 511.034L269.438 511.988V539.691L269.719 539.972L282.63 532.371L269.719 511.034Z" fill="white"/>
<path d="M269.719 511.034L256.809 532.371L269.719 539.972V526.526V511.034Z" fill="white"/>
<path d="M269.719 544.156L269.561 544.349V554.217L269.719 554.679L282.637 536.558L269.719 544.156Z" fill="white"/>
<path d="M269.719 554.679V544.156L256.809 536.558L269.719 554.679Z" fill="white"/>
<path d="M269.719 539.972L282.629 532.371L269.719 526.526V539.972Z" fill="white"/>
<path d="M256.809 532.371L269.719 539.972V526.526L256.809 532.371Z" fill="white"/>
</g>
<defs>
<clipPath id="clip0_302_63">
<rect width="700" height="840" fill="white"/>
</clipPath>
</defs>
</svg>
