<svg viewBox="0 0 1700 800" fill="none" xmlns="http://www.w3.org/2000/svg">
<rect opacity="0.4" x="0.5" y="0.5" width="1699" height="799" fill="#F0F0F0" stroke="black"/>
<path class="diagram--infura-logo" d="M794.769 90.9871V121.608L860.282 114.113H884.419V163.791L843.808 177.71L788.639 192.485L796.876 222.463L849.746 199.765L884.61 187.774V269.143H860.474L794.96 261.649V292.269H994.949V261.649L929.435 269.143H904.916V187.774L939.588 199.551L992.65 222.249L1000.89 192.271L945.909 177.496L905.107 163.577V113.899H929.244L994.757 121.394V90.7729L794.769 90.9871Z" fill="#D0CFCF"/>
<g class="diagram--pinata-logo" clip-path="url(#clip0_418_159)">
<path d="M855.148 697.463V706.36C855.148 716.166 862.225 724.189 871.056 724.189C879.888 724.189 887.343 716.166 887.343 706.36V697.463L871.135 691.987L855.148 697.463Z" fill="#D0CFCF"/>
<path d="M850.13 522.924C850.13 522.924 823.522 529.973 823.332 545.893C823.332 546.105 822.385 563.086 850.13 563.086L856.853 543.005L850.13 522.924Z" fill="#D0CFCF"/>
<path d="M826.657 536.75C824.664 539.391 823.374 542.432 823.332 545.893C823.332 546.105 822.385 563.086 850.13 563.086L853.834 552.021C833.177 551.453 827.937 541.098 826.657 536.75Z" fill="#D0CFCF"/>
<path d="M905.524 509.596L891.19 465.587C891.19 465.587 887.457 453.203 877.602 456.383C877.602 456.383 870.585 458.726 871.032 470.441C871.032 470.608 873.72 520.61 873.72 520.61L905.524 509.596Z" fill="#D0CFCF"/>
<path d="M884.692 456.867C882.804 455.851 880.463 455.458 877.602 456.381C877.602 456.381 870.585 458.724 871.032 470.439C871.032 470.606 873.72 520.608 873.72 520.608L884.657 516.821C884.272 509.647 882.026 467.853 882.026 467.7C881.822 462.366 883.167 458.979 884.692 456.867Z" fill="#D0CFCF"/>
<path d="M920.219 559.83L905.524 509.596L850.131 522.923V563.085L887.911 568.561L919.06 563.085C921.584 563.085 920.22 559.83 920.219 559.83Z" fill="#D0CFCF"/>
<path d="M913.199 582.364H919.012C921.536 582.364 920.172 579.109 920.171 579.108L913.138 563.085H855.148L848.115 579.108C848.115 579.109 846.75 582.364 849.274 582.364H855.087L848.114 598.249C848.114 598.249 846.75 601.504 849.274 601.504L885.289 606.98L919.012 601.504C921.536 601.504 920.172 598.249 920.172 598.249L913.199 582.364Z" fill="#D0CFCF"/>
<path d="M957.921 639.923H963.666C966.19 639.923 964.826 636.668 964.825 636.667L954.131 617.095C954.131 617.095 946.666 601.504 923.988 601.504H855.148L848.115 617.527C848.115 617.528 846.75 620.783 849.274 620.783H855.087L848.114 636.668C848.114 636.668 846.75 639.923 849.274 639.923H855.018L848.115 655.652C848.115 655.652 846.75 658.907 849.274 658.907H855.148V662.552C855.148 672.358 887.342 672.358 887.342 662.552V658.907H925.597V662.552C925.597 672.358 957.791 673.171 957.791 662.552V658.907H963.665C966.189 658.907 964.825 655.652 964.824 655.652L957.921 639.923Z" fill="#D0CFCF"/>
<path d="M864.713 706.36V658.906H858.839C856.315 658.906 857.679 655.651 857.679 655.651L863.381 642.65C864.55 639.987 861.999 639.93 861.999 639.93L858.84 639.922C856.316 639.922 857.679 636.667 857.68 636.667L863.504 623.397C864.551 620.846 862.08 620.787 862.08 620.787L858.839 620.782C856.315 620.782 857.679 617.527 857.679 617.527L863.563 604.123C864.617 601.566 862.146 601.503 862.146 601.503H855.149L848.116 617.527C848.116 617.527 846.752 620.782 849.276 620.782H855.089L848.116 636.668C848.116 636.668 846.752 639.923 849.276 639.923H855.02L848.117 655.652C848.117 655.652 846.752 658.907 849.276 658.907H855.15V706.361C855.15 716.167 862.226 724.19 871.058 724.19C872.72 724.19 874.333 723.906 875.857 723.379C869.376 721.106 864.713 714.32 864.713 706.36Z" fill="#D0CFCF"/>
<path d="M942.891 636.967C942.683 636.367 942.454 635.777 942.213 635.216C941.333 633.173 942.098 630.718 943.921 629.732C945.743 628.746 947.934 629.603 948.814 631.646C949.138 632.399 949.443 633.186 949.72 633.985C950.454 636.099 949.525 638.491 947.635 639.302C945.283 640.313 943.456 638.591 942.891 636.967Z" fill="#D0CFCF"/>
<path d="M936.113 626.977C928.103 620.377 917.333 621.217 917.225 621.227C915.204 621.404 913.447 619.706 913.292 617.446C913.138 615.184 914.648 613.21 916.666 613.037C917.217 612.989 930.278 611.975 940.454 620.359C942.084 621.703 942.49 624.321 941.236 626.101C939.258 628.905 936.766 627.516 936.113 626.977Z" fill="#D0CFCF"/>
<path d="M887.342 678.186H893.215C895.739 678.186 894.375 674.93 894.375 674.93L887.342 658.907H855.147L848.114 674.93C848.114 674.93 846.75 678.186 849.274 678.186H855.147L848.114 694.209C848.114 694.209 846.75 697.464 849.274 697.464H893.216C895.74 697.464 894.376 694.209 894.375 694.209L887.342 678.186Z" fill="#D0CFCF"/>
<path d="M857.678 694.208L863.623 680.664C864.519 678.256 862.16 678.186 862.16 678.186H858.838C856.314 678.186 857.678 674.93 857.678 674.93L863.72 661.164C864.402 658.964 862.16 658.915 862.16 658.915L855.147 658.907L848.114 674.93C848.114 674.93 846.75 678.186 849.274 678.186H855.147L848.114 694.209C848.114 694.209 846.75 697.464 849.274 697.464H858.839C856.314 697.463 857.678 694.209 857.678 694.208Z" fill="#D0CFCF"/>
<path d="M925.598 697.463V706.359C925.598 716.166 932.93 724.189 941.506 724.189C950.081 724.189 957.792 716.979 957.792 706.359V697.463L941.328 691.987L925.598 697.463Z" fill="#D0CFCF"/>
<path d="M957.793 678.186H963.666C966.19 678.186 964.826 674.93 964.826 674.93L957.793 658.907H925.599L918.565 674.93C918.565 674.93 917.201 678.186 919.725 678.186H925.599L918.565 694.209C918.565 694.209 917.201 697.464 919.725 697.464H963.667C966.191 697.464 964.827 694.209 964.826 694.209L957.793 678.186Z" fill="#D0CFCF"/>
<path d="M928.129 694.208L934.074 680.664C934.97 678.256 932.611 678.186 932.611 678.186H929.289C926.765 678.186 928.129 674.93 928.129 674.93L934.171 661.164C934.854 658.964 932.612 658.915 932.612 658.915L925.599 658.907L918.565 674.93C918.565 674.93 917.201 678.186 919.725 678.186H925.599L918.565 694.209C918.565 694.209 917.201 697.464 919.725 697.464H929.289C926.764 697.463 928.128 694.209 928.129 694.208Z" fill="#D0CFCF"/>
<path d="M864.712 706.36V697.463H855.148V706.36C855.148 716.166 862.225 724.189 871.056 724.189C872.719 724.189 874.332 723.905 875.856 723.378C869.376 721.106 864.712 714.32 864.712 706.36Z" fill="#D0CFCF"/>
<path d="M935.161 706.36V697.463H925.598V706.36C925.598 716.166 932.674 724.189 941.506 724.189C943.168 724.189 944.781 723.905 946.305 723.378C939.825 721.106 935.161 714.32 935.161 706.36Z" fill="#D0CFCF"/>
<path d="M859.841 598.249L865.62 585.083C866.789 582.42 864.237 582.364 864.237 582.364H861.001C858.477 582.364 859.841 579.109 859.841 579.109L866.874 563.085H855.148L848.115 579.109C848.115 579.109 846.75 582.364 849.274 582.364H855.087L848.114 598.249C848.114 598.25 846.75 601.505 849.274 601.505H861C858.477 601.504 859.841 598.25 859.841 598.249Z" fill="#D0CFCF"/>
<path d="M850.129 563.085H919.058C921.582 563.085 920.218 559.83 920.218 559.83L917.942 552.048H850.129V563.085Z" fill="#D0CFCF"/>
<path class="diagram--pinata-logo--eye" d="M871.219 546.528C876.448 546.528 880.688 541.777 880.688 535.915C880.688 530.054 876.448 525.303 871.219 525.303C865.989 525.303 861.75 530.054 861.75 535.915C861.75 541.777 865.989 546.528 871.219 546.528Z" fill="white"/>
<path class="diagram--pinata-logo--eye" d="M871.219 540.023C870.256 540.023 869.314 539.585 868.63 538.824C867.946 538.058 867.555 537.001 867.555 535.917C867.555 534.838 867.946 533.775 868.63 533.014C869.313 532.248 870.256 531.81 871.219 531.81C872.186 531.81 873.13 532.248 873.813 533.014C874.493 533.781 874.883 534.838 874.883 535.917C874.883 537.001 874.492 538.058 873.813 538.824C873.129 539.585 872.187 540.023 871.219 540.023Z" fill="#D0CFCF"/>
</g>
<rect x="73.4141" y="303.25" width="315.893" height="177.541" stroke="#D0CFCF" stroke-width="6"/>
<g class="diagram--ethereum-logo" opacity="0.8">
<path d="M1629.13 199.705C1629.13 255.876 1583.21 301.411 1526.56 301.411C1469.92 301.411 1424 255.876 1424 199.705C1424 143.535 1469.92 98 1526.56 98C1583.21 98 1629.13 143.535 1629.13 199.705" fill="#D0CFCF"/>
<path d="M1527.14 152.81L1526.51 154.945V216.904L1527.14 217.531L1556.15 200.531L1527.14 152.81Z" fill="white"/>
<path d="M1527.14 152.81L1498.14 200.531L1527.14 217.531V187.458V152.81Z" fill="white"/>
<path d="M1527.14 226.888L1526.79 227.32V249.391L1527.14 250.425L1556.16 209.896L1527.14 226.888Z" fill="white"/>
<path d="M1527.14 250.425V226.888L1498.14 209.896L1527.14 250.425Z" fill="white"/>
<path d="M1527.14 217.531L1556.15 200.531L1527.14 187.458V217.531Z" fill="white"/>
<path d="M1498.14 200.531L1527.14 217.531V187.458L1498.14 200.531Z" fill="white"/>
</g>
<path d="M1064.2 201.433C1063.62 202.019 1063.62 202.969 1064.2 203.554L1073.75 213.1C1074.34 213.686 1075.29 213.686 1075.87 213.1C1076.46 212.514 1076.46 211.565 1075.87 210.979L1067.39 202.494L1075.87 194.008C1076.46 193.423 1076.46 192.473 1075.87 191.887C1075.29 191.301 1074.34 191.301 1073.75 191.887L1064.2 201.433ZM1398.28 203.554C1398.86 202.969 1398.86 202.019 1398.28 201.433L1388.73 191.887C1388.15 191.301 1387.2 191.301 1386.61 191.887C1386.03 192.473 1386.03 193.423 1386.61 194.008L1395.1 202.494L1386.61 210.979C1386.03 211.565 1386.03 212.514 1386.61 213.1C1387.2 213.686 1388.15 213.686 1388.73 213.1L1398.28 203.554ZM1065.27 203.994H1397.22V200.994H1065.27V203.994Z" fill="black"/>
<path d="M729.637 251.033C729.999 250.291 729.687 249.394 728.941 249.029L716.776 243.096C716.029 242.732 715.13 243.039 714.768 243.782C714.406 244.524 714.718 245.421 715.464 245.786L726.277 251.06L721.03 261.817C720.668 262.56 720.98 263.457 721.726 263.821C722.473 264.185 723.372 263.878 723.734 263.136L729.637 251.033ZM392.801 366.504L728.777 251.791L727.793 248.957L391.817 363.67L392.801 366.504Z" fill="black"/>
<path d="M734.021 533.489C734.753 533.097 735.03 532.188 734.64 531.46L728.28 519.587C727.89 518.859 726.98 518.586 726.248 518.978C725.516 519.37 725.239 520.279 725.63 521.007L731.283 531.56L720.68 537.24C719.948 537.632 719.671 538.54 720.061 539.269C720.452 539.997 721.361 540.27 722.093 539.878L734.021 533.489ZM391.871 431.36L732.877 533.604L733.752 530.735L392.746 428.491L391.871 431.36Z" fill="black"/>
<path d="M139.776 360.309C139.606 358.869 138.915 357.752 137.702 356.956C136.49 356.161 135.004 355.763 133.242 355.763C131.954 355.763 130.827 355.972 129.862 356.388C128.905 356.805 128.157 357.378 127.617 358.107C127.087 358.836 126.822 359.665 126.822 360.593C126.822 361.369 127.006 362.037 127.376 362.596C127.755 363.145 128.238 363.604 128.825 363.974C129.412 364.333 130.027 364.632 130.671 364.868C131.315 365.096 131.907 365.28 132.447 365.422L135.401 366.218C136.159 366.417 137.002 366.691 137.93 367.042C138.867 367.392 139.762 367.87 140.614 368.476C141.476 369.073 142.186 369.84 142.745 370.778C143.304 371.715 143.583 372.866 143.583 374.229C143.583 375.801 143.171 377.222 142.347 378.491C141.533 379.76 140.34 380.768 138.768 381.516C137.205 382.264 135.307 382.638 133.072 382.638C130.988 382.638 129.184 382.302 127.66 381.63C126.145 380.957 124.952 380.02 124.08 378.817C123.219 377.615 122.731 376.218 122.617 374.627H126.254C126.348 375.725 126.718 376.635 127.362 377.354C128.015 378.064 128.839 378.595 129.833 378.945C130.837 379.286 131.917 379.456 133.072 379.456C134.417 379.456 135.624 379.239 136.694 378.803C137.764 378.358 138.612 377.742 139.237 376.956C139.862 376.161 140.174 375.233 140.174 374.172C140.174 373.206 139.904 372.421 139.364 371.814C138.825 371.208 138.114 370.716 137.234 370.337C136.353 369.958 135.401 369.627 134.379 369.343L130.799 368.32C128.526 367.667 126.727 366.734 125.401 365.522C124.076 364.31 123.413 362.724 123.413 360.763C123.413 359.135 123.853 357.714 124.734 356.502C125.624 355.28 126.817 354.333 128.313 353.661C129.819 352.979 131.5 352.638 133.356 352.638C135.231 352.638 136.898 352.974 138.356 353.647C139.814 354.31 140.97 355.219 141.822 356.374C142.684 357.529 143.138 358.841 143.185 360.309H139.776ZM148.921 382.127V360.309H152.159V363.718H152.443C152.898 362.553 153.632 361.649 154.645 361.005C155.658 360.351 156.875 360.025 158.296 360.025C159.735 360.025 160.933 360.351 161.889 361.005C162.855 361.649 163.608 362.553 164.148 363.718H164.375C164.934 362.591 165.772 361.696 166.889 361.033C168.007 360.361 169.347 360.025 170.909 360.025C172.86 360.025 174.456 360.635 175.696 361.857C176.937 363.069 177.557 364.958 177.557 367.525V382.127H174.205V367.525C174.205 365.915 173.764 364.764 172.884 364.073C172.003 363.382 170.966 363.036 169.773 363.036C168.239 363.036 167.05 363.5 166.207 364.428C165.365 365.347 164.943 366.511 164.943 367.922V382.127H161.534V367.184C161.534 365.943 161.132 364.944 160.327 364.187C159.522 363.42 158.485 363.036 157.216 363.036C156.345 363.036 155.53 363.268 154.773 363.732C154.025 364.196 153.419 364.84 152.955 365.664C152.5 366.478 152.273 367.421 152.273 368.491V382.127H148.921ZM190.107 382.638C188.724 382.638 187.469 382.378 186.342 381.857C185.216 381.327 184.321 380.564 183.658 379.57C182.995 378.566 182.663 377.354 182.663 375.934C182.663 374.684 182.91 373.671 183.402 372.894C183.894 372.108 184.553 371.492 185.376 371.047C186.2 370.602 187.109 370.271 188.104 370.053C189.108 369.826 190.116 369.646 191.129 369.513C192.455 369.343 193.53 369.215 194.354 369.13C195.187 369.035 195.793 368.879 196.172 368.661C196.56 368.443 196.754 368.064 196.754 367.525V367.411C196.754 366.01 196.371 364.921 195.604 364.144C194.846 363.367 193.696 362.979 192.152 362.979C190.552 362.979 189.297 363.33 188.388 364.03C187.479 364.731 186.84 365.479 186.47 366.275L183.288 365.138C183.857 363.813 184.614 362.78 185.561 362.042C186.518 361.294 187.559 360.773 188.686 360.479C189.823 360.176 190.94 360.025 192.038 360.025C192.739 360.025 193.544 360.11 194.453 360.28C195.372 360.441 196.257 360.778 197.109 361.289C197.971 361.8 198.686 362.572 199.254 363.604C199.823 364.636 200.107 366.019 200.107 367.752V382.127H196.754V379.172H196.584C196.357 379.646 195.978 380.153 195.448 380.692C194.917 381.232 194.212 381.691 193.331 382.07C192.45 382.449 191.376 382.638 190.107 382.638ZM190.618 379.627C191.944 379.627 193.061 379.367 193.97 378.846C194.889 378.325 195.58 377.653 196.044 376.829C196.518 376.005 196.754 375.138 196.754 374.229V371.161C196.612 371.331 196.3 371.488 195.817 371.63C195.343 371.762 194.794 371.881 194.169 371.985C193.554 372.08 192.952 372.165 192.365 372.241C191.787 372.307 191.319 372.364 190.959 372.411C190.088 372.525 189.273 372.709 188.516 372.965C187.768 373.211 187.162 373.585 186.698 374.087C186.243 374.58 186.016 375.252 186.016 376.104C186.016 377.269 186.447 378.15 187.308 378.746C188.18 379.333 189.283 379.627 190.618 379.627ZM206.225 382.127V360.309H209.464V363.604H209.691C210.089 362.525 210.809 361.649 211.85 360.976C212.892 360.304 214.066 359.968 215.373 359.968C215.619 359.968 215.927 359.973 216.296 359.982C216.666 359.992 216.945 360.006 217.134 360.025V363.434C217.021 363.405 216.76 363.363 216.353 363.306C215.955 363.24 215.534 363.206 215.089 363.206C214.028 363.206 213.081 363.429 212.248 363.874C211.424 364.31 210.771 364.916 210.288 365.692C209.814 366.459 209.577 367.335 209.577 368.32V382.127H206.225ZM231.964 360.309V363.15H220.657V360.309H231.964ZM223.952 355.081H227.305V375.877C227.305 376.824 227.442 377.534 227.717 378.008C228.001 378.472 228.361 378.784 228.796 378.945C229.241 379.097 229.71 379.172 230.202 379.172C230.572 379.172 230.875 379.153 231.112 379.116C231.348 379.068 231.538 379.03 231.68 379.002L232.362 382.013C232.134 382.099 231.817 382.184 231.41 382.269C231.003 382.364 230.487 382.411 229.862 382.411C228.915 382.411 227.987 382.207 227.077 381.8C226.178 381.393 225.43 380.773 224.833 379.939C224.246 379.106 223.952 378.055 223.952 376.786V355.081ZM271.779 353.036V382.127H268.37L252.518 359.286H252.234V382.127H248.711V353.036H252.12L268.029 375.934H268.313V353.036H271.779ZM278.828 382.127V353.036H296.271V356.161H282.351V365.991H294.965V369.116H282.351V382.127H278.828ZM300.714 356.161V353.036H322.532V356.161H313.384V382.127H309.862V356.161H300.714ZM340 365.195L336.989 366.047C336.799 365.546 336.52 365.058 336.151 364.584C335.791 364.101 335.298 363.704 334.673 363.391C334.048 363.079 333.248 362.922 332.273 362.922C330.938 362.922 329.825 363.23 328.935 363.846C328.054 364.452 327.614 365.224 327.614 366.161C327.614 366.994 327.917 367.653 328.523 368.135C329.129 368.618 330.076 369.021 331.364 369.343L334.602 370.138C336.553 370.612 338.007 371.336 338.963 372.312C339.92 373.278 340.398 374.523 340.398 376.047C340.398 377.297 340.038 378.415 339.318 379.4C338.608 380.385 337.614 381.161 336.335 381.729C335.057 382.297 333.57 382.581 331.875 382.581C329.65 382.581 327.808 382.099 326.35 381.133C324.891 380.167 323.968 378.756 323.58 376.9L326.761 376.104C327.064 377.278 327.637 378.159 328.48 378.746C329.332 379.333 330.445 379.627 331.818 379.627C333.381 379.627 334.621 379.296 335.54 378.633C336.468 377.96 336.932 377.155 336.932 376.218C336.932 375.46 336.667 374.826 336.136 374.314C335.606 373.794 334.792 373.405 333.693 373.15L330.057 372.297C328.059 371.824 326.591 371.09 325.653 370.096C324.725 369.092 324.261 367.837 324.261 366.331C324.261 365.1 324.607 364.011 325.298 363.064C325.999 362.117 326.951 361.374 328.153 360.834C329.366 360.295 330.739 360.025 332.273 360.025C334.432 360.025 336.127 360.498 337.358 361.445C338.599 362.392 339.479 363.642 340 365.195ZM204.572 430.127H200.879L211.561 401.036H215.197L225.879 430.127H222.186L213.493 405.638H213.265L204.572 430.127ZM205.936 418.763H220.822V421.888H205.936V418.763ZM230.41 430.127V401.036H240.24C242.522 401.036 244.388 401.448 245.836 402.272C247.295 403.086 248.374 404.189 249.075 405.581C249.776 406.974 250.126 408.527 250.126 410.241C250.126 411.955 249.776 413.512 249.075 414.914C248.384 416.315 247.314 417.433 245.865 418.266C244.416 419.09 242.56 419.502 240.297 419.502H233.251V416.377H240.183C241.745 416.377 243 416.107 243.947 415.567C244.894 415.028 245.581 414.298 246.007 413.38C246.442 412.452 246.66 411.405 246.66 410.241C246.66 409.076 246.442 408.034 246.007 407.116C245.581 406.197 244.889 405.477 243.933 404.956C242.977 404.426 241.708 404.161 240.126 404.161H233.933V430.127H230.41ZM259.324 401.036V430.127H255.801V401.036H259.324Z" fill="#333333"/>
<path d="M526.348 288.424H522.654L533.336 259.333H536.973L547.654 288.424H543.961L535.268 263.935H535.041L526.348 288.424ZM527.711 277.06H542.598V280.185H527.711V277.06Z" fill="black"/>
<path d="M528.68 523.845V494.754H538.85C540.877 494.754 542.548 495.105 543.864 495.805C545.181 496.497 546.161 497.429 546.805 498.604C547.449 499.769 547.771 501.061 547.771 502.482C547.771 503.732 547.548 504.764 547.103 505.578C546.667 506.393 546.09 507.037 545.37 507.51C544.66 507.983 543.888 508.334 543.055 508.561V508.845C543.945 508.902 544.84 509.215 545.739 509.783C546.639 510.351 547.392 511.165 547.998 512.226C548.604 513.287 548.907 514.584 548.907 516.118C548.907 517.576 548.576 518.888 547.913 520.053C547.25 521.217 546.203 522.141 544.773 522.822C543.344 523.504 541.483 523.845 539.191 523.845H528.68ZM532.202 520.72H539.191C541.492 520.72 543.126 520.275 544.092 519.385C545.067 518.485 545.555 517.396 545.555 516.118C545.555 515.133 545.304 514.224 544.802 513.391C544.3 512.548 543.585 511.876 542.657 511.374C541.729 510.862 540.63 510.607 539.362 510.607H532.202V520.72ZM532.202 507.538H538.737C539.797 507.538 540.754 507.33 541.606 506.913C542.468 506.497 543.149 505.91 543.651 505.152C544.163 504.394 544.418 503.504 544.418 502.482C544.418 501.203 543.973 500.119 543.083 499.229C542.193 498.329 540.782 497.879 538.85 497.879H532.202V507.538Z" fill="black"/>
<path d="M1262.74 161.671H1259.21C1259 160.658 1258.64 159.767 1258.12 159C1257.61 158.233 1256.98 157.589 1256.24 157.069C1255.52 156.538 1254.71 156.141 1253.82 155.875C1252.93 155.61 1252 155.478 1251.03 155.478C1249.27 155.478 1247.67 155.923 1246.24 156.813C1244.82 157.703 1243.69 159.015 1242.85 160.748C1242.02 162.481 1241.6 164.607 1241.6 167.125C1241.6 169.644 1242.02 171.77 1242.85 173.503C1243.69 175.236 1244.82 176.548 1246.24 177.438C1247.67 178.328 1249.27 178.773 1251.03 178.773C1252 178.773 1252.93 178.641 1253.82 178.375C1254.71 178.11 1255.52 177.717 1256.24 177.196C1256.98 176.666 1257.61 176.017 1258.12 175.25C1258.64 174.474 1259 173.584 1259.21 172.58H1262.74C1262.47 174.067 1261.99 175.397 1261.29 176.571C1260.59 177.746 1259.72 178.745 1258.67 179.569C1257.63 180.383 1256.46 181.003 1255.16 181.429C1253.88 181.856 1252.5 182.069 1251.03 182.069C1248.55 182.069 1246.34 181.463 1244.41 180.25C1242.48 179.038 1240.96 177.315 1239.85 175.08C1238.74 172.845 1238.19 170.194 1238.19 167.125C1238.19 164.057 1238.74 161.406 1239.85 159.171C1240.96 156.936 1242.48 155.213 1244.41 154C1246.34 152.788 1248.55 152.182 1251.03 152.182C1252.5 152.182 1253.88 152.395 1255.16 152.821C1256.46 153.248 1257.63 153.873 1258.67 154.696C1259.72 155.511 1260.59 156.505 1261.29 157.679C1261.99 158.844 1262.47 160.175 1262.74 161.671Z" fill="black"/>
<defs>
<clipPath id="clip0_418_159">
<rect width="239.408" height="268.329" fill="white" transform="translate(774.557 455.86)"/>
</clipPath>
</defs>
</svg>
