<svg viewBox="0 0 600 500" fill="none" xmlns="http://www.w3.org/2000/svg">
<g clip-path="url(#clip0_217_1150)">
<path d="M68.8229 500L68.3008 499.819C59.5618 496.735 51.6456 491.907 45.1021 485.672C38.5586 479.437 33.5449 471.943 30.4095 463.712C28.6901 459.081 27.6006 454.267 27.1668 449.382L27.1242 448.916L27.6163 448.998C33.4902 449.985 39.6567 450.53 42.4041 450.743L26.9902 441.2L27.018 440.705C27.1354 438.428 27.9788 436.236 29.4397 434.411C30.9005 432.586 32.9119 431.213 35.2146 430.468C37.5393 429.664 40.0678 429.531 42.4743 430.084C44.8808 430.637 47.0552 431.852 48.7172 433.572C50.2496 435.128 51.8697 436.694 53.4362 438.21C58.8198 443.415 64.3867 448.798 67.9068 455.153C70.5207 459.987 71.9475 465.307 72.0828 470.723C72.2181 476.14 71.0585 481.516 68.6888 486.46L68.8229 500Z" fill="#F2F2F2"/>
<path d="M380.701 490.753L380.695 490.702C380.013 476.548 377.237 462.551 372.447 449.11L372.442 449.088C372.163 447.708 372.244 446.284 372.679 444.94C373.326 443.075 374.667 441.489 376.458 440.471C378.249 439.452 380.371 439.069 382.439 439.39C386.853 440.166 391.417 439.437 395.306 437.335C396.524 436.673 397.889 436.284 399.295 436.197C400.7 436.11 402.108 436.328 403.409 436.833C404.635 437.3 405.727 438.03 406.598 438.963C407.469 439.896 408.094 441.007 408.424 442.207C408.476 442.399 408.522 442.592 408.561 442.788C408.701 457.009 411.493 471.097 416.811 484.42L416.814 484.437C417.088 485.793 417.015 487.191 416.6 488.515C416.185 489.84 415.441 491.053 414.427 492.056C413.53 492.908 412.443 493.564 411.243 493.977C410.043 494.389 408.76 494.548 407.487 494.442C402.858 494.147 398.098 495.025 392.934 497.129C391.13 497.88 389.102 498.013 387.204 497.505C385.558 497.054 384.078 496.184 382.93 494.991C381.781 493.799 381.01 492.332 380.701 490.753Z" fill="#72419F"/>
<path d="M232.746 296.324V482.191H371.921V296.324C371.923 294.987 371.467 293.685 370.62 292.609C369.773 291.532 368.579 290.738 367.214 290.344C366.57 290.145 365.896 290.047 365.219 290.054H239.467C238.586 290.052 237.713 290.213 236.898 290.528C236.083 290.842 235.342 291.303 234.718 291.886C234.094 292.468 233.598 293.16 233.26 293.921C232.922 294.683 232.747 295.499 232.746 296.324V296.324ZM287.06 360.189C287.096 356.524 288.677 353.021 291.46 350.442C294.242 347.863 298 346.416 301.917 346.416C305.834 346.416 309.592 347.863 312.374 350.442C315.157 353.021 316.738 356.524 316.774 360.189V381.755C316.755 385.43 315.182 388.948 312.398 391.541C309.613 394.133 305.845 395.589 301.917 395.589C297.989 395.589 294.221 394.133 291.436 391.541C288.652 388.948 287.079 385.43 287.06 381.755V360.189Z" fill="#F2F2F2"/>
<path d="M232.32 476.246V494.17C232.323 495.098 232.718 495.988 233.418 496.646C234.117 497.304 235.066 497.678 236.059 497.685H368.609C369.602 497.681 370.553 497.308 371.254 496.649C371.954 495.991 372.348 495.099 372.347 494.17V476.246H232.32Z" fill="#E6E6E6"/>
<path d="M13.8047 16.2924V355.658C13.8083 359.983 15.6462 364.129 18.9148 367.187C22.1833 370.245 26.6154 371.965 31.2379 371.968H568.761C573.383 371.965 577.815 370.245 581.084 367.187C584.352 364.129 586.19 359.983 586.194 355.658V16.2924C586.183 11.9714 584.342 7.83062 581.074 4.7769C577.807 1.72319 573.379 0.00548492 568.761 0H31.2379C26.6194 0.00550461 22.1916 1.72321 18.9241 4.77692C15.6565 7.83063 13.8157 11.9714 13.8047 16.2924V16.2924Z" fill="#E6E6E6"/>
<path d="M564.278 11.7798H35.7233C33.2505 11.7848 30.8809 12.7073 29.1342 14.3449C27.3875 15.9825 26.4065 18.2015 26.4062 20.5149V351.472C26.4105 353.782 27.3935 355.997 29.1398 357.631C30.8862 359.265 33.2535 360.185 35.7233 360.189H564.278C566.747 360.185 569.115 359.265 570.861 357.631C572.607 355.997 573.59 353.782 573.595 351.472V20.5149C573.594 18.2014 572.613 15.9825 570.867 14.3449C569.12 12.7073 566.75 11.7848 564.278 11.7798V11.7798ZM430.948 246.91C430.173 248.342 428.989 249.544 427.526 250.383C426.064 251.222 424.381 251.664 422.666 251.66L422.61 251.656C417.543 250.996 412.458 250.56 407.353 250.35C408.146 250.881 408.843 251.526 409.419 252.262C410.151 253.242 410.642 254.362 410.856 255.542C411.071 256.721 411.004 257.93 410.66 259.082C409.506 263.285 409.561 267.825 410.829 272.959C411.289 274.755 411.059 276.645 410.179 278.299C409.405 279.73 408.22 280.933 406.758 281.772C405.295 282.61 403.612 283.052 401.897 283.049L401.842 283.045C389.741 281.468 377.49 281.163 365.317 282.135C365.268 282.422 365.208 282.71 365.129 282.997C363.975 287.201 364.029 291.74 365.298 296.874C365.758 298.67 365.528 300.56 364.648 302.214C363.873 303.646 362.689 304.848 361.226 305.687C359.764 306.526 358.081 306.968 356.366 306.964L356.31 306.96C343.883 305.342 331.298 305.064 318.803 306.134C318.708 309.053 319.032 311.971 319.766 314.81C320.226 316.606 319.996 318.497 319.116 320.15C318.342 321.582 317.157 322.784 315.695 323.623C314.232 324.462 312.55 324.904 310.834 324.9L310.779 324.897C295.78 322.941 280.565 322.941 265.566 324.897H265.542C264.04 324.902 262.559 324.568 261.226 323.922C259.384 322.987 257.962 321.464 257.219 319.63C256.475 317.797 256.459 315.775 257.174 313.932C257.627 312.732 257.964 311.497 258.18 310.242C244.435 308.759 230.544 308.912 216.84 310.697H216.815C215.314 310.702 213.833 310.368 212.499 309.723C210.657 308.787 209.236 307.264 208.492 305.431C207.749 303.597 207.733 301.575 208.447 299.732C210.068 295.813 210.134 291.481 208.635 287.521C207.928 285.664 207.928 283.635 208.634 281.778C198.303 281.286 187.945 281.71 177.699 283.045H177.674C176.173 283.05 174.692 282.716 173.358 282.071C171.516 281.135 170.095 279.612 169.351 277.779C168.608 275.945 168.592 273.923 169.307 272.08C170.927 268.161 170.994 263.829 169.494 259.869C169.021 258.627 168.861 257.301 169.026 255.992C169.191 254.683 169.676 253.428 170.445 252.323C171.16 251.281 172.126 250.409 173.265 249.778C174.405 249.148 175.686 248.775 177.007 248.691C177.218 248.677 177.429 248.671 177.643 248.671C182.893 249.529 188.193 250.089 193.515 250.348C191.865 249.334 190.629 247.829 190.005 246.078C189.381 244.326 189.406 242.428 190.075 240.691C191.696 236.773 191.762 232.44 190.262 228.48C189.79 227.239 189.63 225.912 189.795 224.603C189.96 223.295 190.445 222.039 191.213 220.935C191.281 220.838 191.359 220.753 191.43 220.659C187.643 220.904 183.865 221.271 180.095 221.762H180.071C178.569 221.768 177.088 221.433 175.755 220.788C173.913 219.852 172.491 218.329 171.748 216.496C171.004 214.663 170.988 212.641 171.703 210.797C173.324 206.879 173.39 202.546 171.89 198.586C171.417 197.345 171.257 196.018 171.422 194.709C171.587 193.401 172.073 192.145 172.841 191.041C173.556 189.998 174.522 189.126 175.662 188.496C176.801 187.865 178.083 187.492 179.404 187.408C179.614 187.395 179.826 187.388 180.04 187.388C186.352 188.422 192.736 189.023 199.142 189.187C198.336 188.101 197.818 186.851 197.631 185.54C197.443 184.23 197.591 182.897 198.063 181.651C199.684 177.732 199.75 173.4 198.25 169.439C197.778 168.198 197.618 166.871 197.783 165.563C197.948 164.254 198.433 162.998 199.201 161.894C199.916 160.851 200.882 159.98 202.022 159.349C203.161 158.718 204.443 158.346 205.764 158.261C205.975 158.248 206.186 158.241 206.4 158.241C211.741 159.115 217.135 159.68 222.551 159.933C221.976 158.913 221.632 157.793 221.542 156.643C221.452 155.493 221.617 154.338 222.027 153.251C223.648 149.333 223.714 145 222.214 141.04C221.742 139.799 221.582 138.472 221.746 137.163C221.911 135.855 222.397 134.599 223.165 133.495C223.88 132.452 224.846 131.58 225.986 130.95C227.125 130.319 228.407 129.946 229.728 129.862C229.939 129.849 230.15 129.842 230.364 129.842C236.649 130.871 243.006 131.472 249.384 131.638C248.516 129.719 248.445 127.565 249.186 125.599C250.807 121.681 250.873 117.348 249.373 113.388C248.901 112.147 248.741 110.82 248.905 109.511C249.07 108.203 249.556 106.947 250.324 105.843C251.039 104.8 252.005 103.928 253.145 103.298C254.284 102.667 255.566 102.294 256.887 102.21C257.098 102.197 257.309 102.19 257.523 102.19C272.493 104.655 287.807 104.657 302.778 102.195H302.797C303.952 102.418 305.144 102.418 306.299 102.195H306.318C321.288 104.657 336.603 104.655 351.573 102.19C351.787 102.19 351.998 102.197 352.209 102.21C353.53 102.294 354.811 102.667 355.951 103.298C357.09 103.928 358.056 104.8 358.772 105.843C359.54 106.947 360.025 108.203 360.19 109.511C360.355 110.82 360.195 112.147 359.722 113.388C358.223 117.348 358.289 121.681 359.91 125.599C360.65 127.565 360.58 129.719 359.711 131.638C366.09 131.472 372.447 130.871 378.732 129.842C378.946 129.842 379.157 129.849 379.368 129.862C380.689 129.946 381.97 130.319 383.11 130.95C384.25 131.58 385.216 132.452 385.931 133.495C386.699 134.599 387.184 135.855 387.349 137.163C387.514 138.472 387.354 139.799 386.882 141.04C385.382 145 385.448 149.333 387.069 153.251C387.479 154.338 387.644 155.493 387.554 156.643C387.464 157.793 387.12 158.913 386.544 159.933C391.96 159.68 397.354 159.115 402.696 158.241C402.91 158.241 403.121 158.248 403.332 158.261C404.653 158.346 405.934 158.718 407.074 159.349C408.213 159.98 409.179 160.851 409.894 161.894C410.663 162.998 411.148 164.254 411.313 165.563C411.478 166.871 411.318 168.198 410.845 169.439C409.346 173.4 409.412 177.732 411.033 181.651C411.506 182.9 411.653 184.237 411.464 185.55C411.274 186.864 410.753 188.116 409.943 189.203C410.656 189.707 411.287 190.305 411.816 190.979C412.547 191.96 413.038 193.08 413.253 194.259C413.467 195.438 413.4 196.647 413.057 197.799C411.902 202.003 411.957 206.542 413.225 211.676C413.685 213.472 413.455 215.362 412.576 217.016C412.254 217.604 411.862 218.157 411.407 218.663C415.147 218.356 418.876 217.897 422.597 217.287H422.616C424.091 217.282 425.547 217.605 426.863 218.228C428.179 218.851 429.319 219.758 430.188 220.873C430.92 221.854 431.41 222.974 431.625 224.153C431.84 225.332 431.773 226.541 431.429 227.693C430.275 231.897 430.329 236.436 431.598 241.57C432.058 243.366 431.828 245.256 430.948 246.91V246.91Z" fill="white"/>
<path d="M547.134 57.3705H52.5683C52.0542 57.3599 51.565 57.1613 51.2055 56.8174C50.8459 56.4735 50.6445 56.0115 50.6445 55.5304C50.6445 55.0493 50.8459 54.5873 51.2055 54.2434C51.565 53.8995 52.0542 53.7009 52.5683 53.6903H547.134C547.649 53.7009 548.138 53.8995 548.497 54.2434C548.857 54.5873 549.058 55.0493 549.058 55.5304C549.058 56.0115 548.857 56.4735 548.497 56.8174C548.138 57.1613 547.649 57.3599 547.134 57.3705V57.3705Z" fill="#E6E6E6"/>
<path d="M86.2331 44.2953C92.5988 44.2953 97.7592 39.3596 97.7592 33.2712C97.7592 27.1827 92.5988 22.2471 86.2331 22.2471C79.8674 22.2471 74.707 27.1827 74.707 33.2712C74.707 39.3596 79.8674 44.2953 86.2331 44.2953Z" fill="#3F3D56"/>
<path d="M126.051 44.2953C132.417 44.2953 137.578 39.3596 137.578 33.2712C137.578 27.1827 132.417 22.2471 126.051 22.2471C119.686 22.2471 114.525 27.1827 114.525 33.2712C114.525 39.3596 119.686 44.2953 126.051 44.2953Z" fill="#3F3D56"/>
<path d="M165.868 44.2953C172.234 44.2953 177.394 39.3596 177.394 33.2712C177.394 27.1827 172.234 22.2471 165.868 22.2471C159.502 22.2471 154.342 27.1827 154.342 33.2712C154.342 39.3596 159.502 44.2953 165.868 44.2953Z" fill="#3F3D56"/>
<path d="M523.158 24.9731H494.877C494.318 24.9851 493.786 25.2013 493.395 25.5756C493.004 25.9499 492.785 26.4524 492.785 26.9757C492.785 27.4991 493.004 28.0016 493.395 28.3759C493.786 28.7501 494.318 28.9663 494.877 28.9783H523.158C523.72 28.9711 524.257 28.757 524.652 28.3822C525.048 28.0074 525.269 27.5022 525.269 26.9757C525.269 26.4493 525.048 25.944 524.652 25.5693C524.257 25.1945 523.72 24.9803 523.158 24.9731H523.158Z" fill="#3F3D56"/>
<path d="M523.156 32.494H494.876C494.316 32.5059 493.784 32.7221 493.393 33.0963C493.002 33.4706 492.783 33.9732 492.783 34.4965C492.783 35.0199 493.002 35.5225 493.393 35.8967C493.784 36.271 494.316 36.4872 494.876 36.4991H523.156C523.719 36.492 524.256 36.2779 524.651 35.9032C525.046 35.5284 525.268 35.023 525.268 34.4965C525.268 33.97 525.046 33.4647 524.651 33.0899C524.256 32.7151 523.719 32.5011 523.156 32.494H523.156Z" fill="#3F3D56"/>
<path d="M523.158 40.0149H494.877C494.318 40.0269 493.786 40.2431 493.395 40.6173C493.004 40.9916 492.785 41.4941 492.785 42.0175C492.785 42.5408 493.004 43.0433 493.395 43.4176C493.786 43.7919 494.318 44.0081 494.877 44.02H523.158C523.72 44.0129 524.257 43.7987 524.652 43.4239C525.048 43.0492 525.269 42.5439 525.269 42.0175C525.269 41.491 525.048 40.9858 524.652 40.611C524.257 40.2362 523.72 40.0221 523.158 40.0149H523.158Z" fill="#3F3D56"/>
<path d="M305.826 316.084L305.77 316.081C290.772 314.126 275.556 314.126 260.557 316.081H260.533C259.032 316.086 257.551 315.752 256.217 315.106C254.375 314.171 252.954 312.648 252.21 310.814C251.467 308.981 251.451 306.959 252.165 305.116C253.786 301.197 253.852 296.865 252.353 292.905C251.88 291.663 251.72 290.336 251.885 289.028C252.05 287.719 252.535 286.464 253.303 285.359C254.019 284.316 254.984 283.445 256.124 282.814C257.264 282.183 258.545 281.811 259.866 281.726C260.077 281.713 260.288 281.706 260.502 281.706C275.472 284.171 290.787 284.173 305.757 281.712H305.776C307.251 281.707 308.707 282.029 310.023 282.653C311.339 283.276 312.479 284.182 313.348 285.297C314.08 286.278 314.57 287.398 314.785 288.577C315 289.756 314.933 290.965 314.589 292.117C313.435 296.321 313.489 300.86 314.758 305.994C315.218 307.791 314.988 309.681 314.108 311.334C313.333 312.766 312.149 313.969 310.686 314.807C309.224 315.646 307.541 316.088 305.826 316.084Z" fill="#72419F"/>
<path d="M351.951 242.809L339.885 233.467C330.836 237.904 317.068 255.62 317.068 255.62L285.305 276.993C284.091 277.047 282.914 277.399 281.893 278.014C280.871 278.629 280.041 279.484 279.485 280.495C278.929 281.506 278.668 282.635 278.727 283.77C278.786 284.906 279.164 286.006 279.822 286.961C280.481 287.916 281.396 288.692 282.477 289.211C283.558 289.73 284.766 289.973 285.979 289.916C287.192 289.859 288.368 289.505 289.388 288.888C290.408 288.27 291.236 287.413 291.79 286.401L334.946 265.064L351.951 242.809Z" fill="#FFB8B8"/>
<path d="M372.308 207.253C374.162 208.721 375.646 210.554 376.656 212.62C377.666 214.686 378.177 216.934 378.153 219.206C378.128 221.478 377.569 223.717 376.515 225.763C375.46 227.81 373.937 229.614 372.053 231.047L364.38 236.883C364.38 236.883 345.24 262.662 335.277 265.653L309.701 278.154L298.168 267.336L321.348 249.661C321.348 249.661 332.01 240.227 333.077 233.32C333.731 229.09 341.382 217.569 349.051 209.023C350.453 207.476 352.167 206.203 354.095 205.277C356.023 204.351 358.127 203.789 360.287 203.625C362.448 203.46 364.621 203.696 366.684 204.319C368.747 204.941 370.658 205.938 372.308 207.253V207.253Z" fill="#3F3D56"/>
<path d="M347.511 487.027L336.61 487.027L331.424 447.686L347.513 447.687L347.511 487.027Z" fill="#FFB6B6"/>
<path d="M347.894 497.667L314.371 497.666V497.269C314.371 494.032 315.746 490.927 318.193 488.637C320.64 486.348 323.959 485.062 327.419 485.062H327.42L333.543 480.715L344.968 485.062L347.894 485.063L347.894 497.667Z" fill="#2F2E41"/>
<path d="M430.571 433.345L425.409 442.328L385.918 427.973L393.538 414.715L430.571 433.345Z" fill="#FFB6B6"/>
<path d="M440.77 438.067L424.895 465.691L424.521 465.503C421.474 463.97 419.202 461.366 418.205 458.266C417.209 455.166 417.569 451.822 419.208 448.97L419.208 448.969L418.016 441.865L427.518 434.509L428.904 432.098L440.77 438.067Z" fill="#2F2E41"/>
<path d="M326.901 306.87L317.279 378.884L322.09 403.028L408.683 438.521L413.494 423.893C391.359 411.221 367.698 392.043 352.789 390.634C352.789 390.634 351.553 377.854 362.233 369.967C364.388 368.375 363.917 366.222 364.788 364.271C365.388 362.929 367.772 361.532 368.382 360.155C369.173 358.371 368.194 356.598 368.99 354.785C369.437 353.765 371.133 353.701 371.577 352.681C372.336 350.941 371.839 348.246 372.578 346.527C374.157 342.853 375.675 339.26 377.061 335.892C381.375 325.409 384.412 317.103 384.028 315.309C382.825 309.683 326.901 306.87 326.901 306.87Z" fill="#2F2E41"/>
<path d="M325.243 378.676L320.209 409.088L332.913 471.153H349.751C355.8 450.299 356.112 422.89 350.352 399.701L325.243 378.676Z" fill="#2F2E41"/>
<path d="M336.061 218.883L343.823 206.229L352.157 199.974L367.791 197.723L372.135 200.848C387.768 223.201 393.597 250.329 388.413 276.598L387.193 282.782L386.418 286.707L386.754 291.398L384.145 298.228L384.504 303.23L384.695 305.901L384.888 308.582L385.156 312.324C385.637 314.46 383.216 314.178 383.559 316.061C384.16 319.367 386.857 324.266 382.76 324.282L340.424 316.061C329.669 316.102 319.655 304.103 330.04 294.388L336.061 218.883Z" fill="#3F3D56"/>
<path d="M355.877 194.198C367.231 194.198 376.435 185.586 376.435 174.964C376.435 164.341 367.231 155.729 355.877 155.729C344.523 155.729 335.318 164.341 335.318 174.964C335.318 185.586 344.523 194.198 355.877 194.198Z" fill="#FFB8B8"/>
<path d="M356.225 193.652C359.234 193.695 362.24 193.499 365.212 193.064C368.159 192.503 374.749 187.985 376.587 185.265C377.952 183.245 378.825 180.09 379.317 177.8C379.979 174.768 379.954 171.641 379.242 168.619C378.531 165.597 377.149 162.749 375.186 160.259C374.432 159.217 373.391 158.386 372.173 157.853C372.065 157.813 371.954 157.778 371.841 157.748C370.067 157.311 368.472 156.388 367.262 155.097C367.028 154.836 366.773 154.591 366.501 154.364C365.133 153.284 363.512 152.523 361.77 152.142C358.958 151.437 354.888 152.136 349.673 154.221C347.054 155.269 344.189 154.89 341.985 154.442C341.861 154.42 341.733 154.428 341.614 154.466C341.495 154.505 341.389 154.571 341.306 154.66C340.368 155.483 339.132 155.945 337.845 155.95C337.058 155.983 336.231 157.003 335.232 158.334C335.005 158.636 334.741 158.989 334.55 159.203L334.524 158.791L334.079 159.251C333.379 159.973 332.885 160.85 332.644 161.799C332.403 162.747 332.423 163.738 332.701 164.678C332.979 165.618 333.507 166.477 334.236 167.174C334.965 167.872 335.87 168.385 336.868 168.667C337.661 168.865 338.472 168.986 339.291 169.029C339.787 169.07 340.3 169.114 340.792 169.193C342.369 169.496 343.836 170.176 345.05 171.167C346.263 172.158 347.18 173.426 347.713 174.848C347.839 175.177 348.044 175.474 348.312 175.717C348.58 175.96 348.905 176.142 349.26 176.249C349.615 176.356 349.992 176.385 350.361 176.334C350.731 176.283 351.082 176.153 351.389 175.955C351.902 175.582 352.503 175.33 353.141 175.221C353.78 175.112 354.437 175.15 355.057 175.33C355.592 175.609 356.009 176.051 356.238 176.583C356.515 177.176 356.975 177.678 357.559 178.025C359.555 178.988 359.693 183.255 358.976 186.811C358.285 190.239 356.918 192.719 355.653 192.842C354.679 192.936 354.568 193.001 354.497 193.162L354.434 193.306L354.544 193.441C355.082 193.624 355.655 193.695 356.225 193.652Z" fill="#2F2E41"/>
<path d="M314.613 182.309L314.557 182.305C299.559 180.35 284.343 180.35 269.344 182.305H269.32C267.819 182.31 266.338 181.976 265.004 181.331C263.162 180.395 261.741 178.872 260.997 177.039C260.254 175.205 260.238 173.183 260.952 171.34C262.573 167.421 262.639 163.089 261.14 159.129C260.667 157.887 260.507 156.561 260.672 155.252C260.837 153.943 261.322 152.688 262.091 151.583C262.806 150.541 263.772 149.669 264.911 149.038C266.051 148.408 267.332 148.035 268.653 147.951C268.864 147.937 269.075 147.931 269.289 147.931C284.259 150.396 299.574 150.398 314.544 147.936H314.563C316.038 147.931 317.494 148.254 318.81 148.877C320.126 149.5 321.266 150.407 322.135 151.522C322.867 152.502 323.357 153.623 323.572 154.802C323.787 155.981 323.72 157.19 323.376 158.342C322.222 162.545 322.276 167.085 323.545 172.219C324.005 174.015 323.775 175.905 322.895 177.559C322.12 178.99 320.936 180.193 319.473 181.032C318.011 181.87 316.328 182.312 314.613 182.309V182.309Z" fill="#72419F"/>
<path d="M333.838 227.61L342.345 215.306C336.577 207.417 316.163 196.694 316.163 196.694L289.763 169.678C289.564 168.557 289.053 167.504 288.281 166.627C287.509 165.749 286.503 165.078 285.366 164.679C284.228 164.281 282.998 164.17 281.8 164.358C280.602 164.546 279.478 165.025 278.541 165.749C277.604 166.472 276.887 167.413 276.463 168.478C276.039 169.543 275.922 170.694 276.124 171.815C276.326 172.935 276.84 173.986 277.614 174.862C278.388 175.738 279.395 176.407 280.534 176.803L308.227 214.41L333.838 227.61Z" fill="#FFB8B8"/>
<path d="M373.959 242.371C372.617 244.264 370.845 245.858 368.77 247.038C366.695 248.218 364.368 248.955 361.953 249.198C359.539 249.441 357.097 249.183 354.801 248.442C352.505 247.702 350.412 246.497 348.671 244.914L341.579 238.466C341.579 238.466 311.852 223.943 307.513 215.036L288.035 189.187L301.095 178.164L323.796 197.471C323.796 197.471 334.247 208.779 341.704 208.964C346.27 209.077 359.394 214.84 369.362 220.967C371.168 222.089 372.719 223.533 373.928 225.216C375.136 226.899 375.978 228.789 376.405 230.777C376.832 232.765 376.836 234.812 376.416 236.802C375.996 238.791 375.161 240.684 373.959 242.371Z" fill="#3F3D56"/>
<path d="M175.929 497.555L175.874 497.552C160.875 495.596 145.659 495.596 130.661 497.552H130.637C129.135 497.557 127.654 497.223 126.321 496.577C124.479 495.642 123.057 494.119 122.314 492.285C121.57 490.452 121.554 488.43 122.269 486.587C123.889 482.668 123.956 478.336 122.456 474.375C121.983 473.134 121.823 471.807 121.988 470.499C122.153 469.19 122.639 467.934 123.407 466.83C124.122 465.787 125.088 464.916 126.228 464.285C127.367 463.654 128.649 463.282 129.97 463.197C130.18 463.184 130.392 463.177 130.605 463.177C145.575 465.642 160.89 465.644 175.861 463.183H175.879C177.355 463.178 178.81 463.5 180.126 464.123C181.443 464.747 182.582 465.653 183.452 466.768C184.183 467.749 184.674 468.869 184.889 470.048C185.103 471.227 185.036 472.436 184.693 473.588C183.538 477.792 183.593 482.331 184.861 487.465C185.321 489.261 185.091 491.152 184.211 492.805C183.437 494.237 182.252 495.439 180.79 496.278C179.327 497.117 177.645 497.559 175.929 497.555V497.555Z" fill="#72419F"/>
<path d="M188.711 466.167L188.655 466.163C173.657 464.208 158.441 464.208 143.442 466.163H143.418C141.916 466.168 140.436 465.834 139.102 465.189C137.26 464.253 135.838 462.73 135.095 460.897C134.351 459.063 134.335 457.041 135.05 455.198C136.671 451.279 136.737 446.947 135.237 442.987C134.765 441.745 134.605 440.419 134.77 439.11C134.934 437.801 135.42 436.546 136.188 435.441C136.903 434.399 137.869 433.527 139.009 432.896C140.148 432.265 141.43 431.893 142.751 431.809C142.962 431.795 143.173 431.788 143.387 431.788C158.357 434.254 173.671 434.255 188.642 431.794H188.661C190.136 431.789 191.591 432.112 192.908 432.735C194.224 433.358 195.363 434.264 196.233 435.38C196.964 436.36 197.455 437.48 197.67 438.66C197.884 439.839 197.817 441.047 197.474 442.2C196.319 446.403 196.374 450.943 197.642 456.077C198.103 457.873 197.872 459.763 196.993 461.416C196.218 462.848 195.033 464.051 193.571 464.889C192.109 465.728 190.426 466.17 188.711 466.167Z" fill="#72419F"/>
<path d="M76.8697 474.723L76.904 474.682C87.0389 464.155 95.5647 452.364 102.238 439.645L102.251 439.627C103.088 438.46 104.214 437.5 105.532 436.828C107.393 435.925 109.538 435.677 111.577 436.128C113.617 436.579 115.416 437.699 116.647 439.286C119.208 442.738 123.006 445.216 127.353 446.273C128.717 446.603 129.981 447.222 131.047 448.083C132.113 448.944 132.953 450.024 133.5 451.238C134.022 452.376 134.253 453.613 134.173 454.85C134.092 456.086 133.704 457.288 133.039 458.359C132.932 458.53 132.82 458.698 132.7 458.863C122.13 469.083 113.547 480.949 107.338 493.93L107.327 493.944C106.505 495.09 105.404 496.038 104.115 496.708C102.826 497.379 101.385 497.754 99.9103 497.803C98.632 497.821 97.3655 497.573 96.2014 497.079C95.0373 496.585 94.0046 495.855 93.1772 494.944C90.1025 491.693 86.0534 489.192 80.7976 487.299C78.9496 486.649 77.405 485.411 76.4343 483.803C75.6007 482.4 75.2 480.809 75.2769 479.205C75.3538 477.602 75.9052 476.05 76.8697 474.723V474.723Z" fill="#72419F"/>
<path d="M599.048 498.695L0.950315 498.925C0.698542 498.924 0.457335 498.83 0.279562 498.663C0.101788 498.496 0.00195312 498.27 0.00195312 498.035C0.00195312 497.799 0.101788 497.573 0.279562 497.407C0.457335 497.24 0.698542 497.146 0.950315 497.145L599.048 496.915C599.3 496.916 599.541 497.01 599.719 497.177C599.897 497.344 599.997 497.57 599.997 497.805C599.997 498.041 599.897 498.267 599.719 498.434C599.541 498.6 599.3 498.694 599.048 498.695V498.695Z" fill="#CACACA"/>
</g>
<defs>
<clipPath id="clip0_217_1150">
<rect width="600" height="500" fill="white"/>
</clipPath>
</defs>
</svg>
