<svg viewBox="0 0 850 550" fill="none" xmlns="http://www.w3.org/2000/svg">
<g opacity="0.9" clip-path="url(#clip0_216_851)">
<path d="M642.023 437.988C639.696 422.314 639.082 406.433 640.19 390.626L642.023 364.465C631.921 384.566 634.204 411.023 642.023 437.987V437.988Z" fill="#CACACA"/>
<path d="M649.903 442.364C648.783 433.011 648.487 423.577 649.021 414.172L649.903 398.601C645.042 410.565 646.141 426.313 649.903 442.364Z" fill="#CACACA"/>
<path d="M684.92 461.622V470.374C684.916 471.07 684.638 471.735 684.147 472.227C683.655 472.719 682.989 472.997 682.294 473H677.917C677.802 473 677.688 473.022 677.582 473.066C677.475 473.11 677.379 473.174 677.297 473.255C677.216 473.337 677.151 473.434 677.108 473.54C677.064 473.646 677.041 473.76 677.042 473.875V545.647C677.038 546.342 676.76 547.008 676.269 547.5C675.777 547.991 675.111 548.269 674.416 548.273H621.02C620.324 548.272 619.656 547.995 619.164 547.503C618.671 547.011 618.395 546.343 618.394 545.647V473.875C618.393 473.643 618.301 473.421 618.137 473.257C617.973 473.093 617.751 473.001 617.519 473H612.267C611.57 473 610.903 472.723 610.41 472.23C609.918 471.738 609.641 471.071 609.641 470.374V461.622C609.64 461.277 609.708 460.935 609.84 460.616C609.971 460.297 610.165 460.008 610.409 459.764C610.653 459.52 610.942 459.327 611.261 459.195C611.58 459.063 611.922 458.995 612.267 458.996H682.294C682.99 458.998 683.656 459.275 684.148 459.767C684.64 460.259 684.918 460.926 684.92 461.622V461.622Z" fill="#F2F2F2"/>
<path d="M677.12 474.838H618.473V477.464H677.12V474.838Z" fill="#E6E6E6"/>
<path d="M677.043 513.477C657.418 521.597 637.579 521.687 617.52 513.477V494.978C636.831 488.492 657.732 488.492 677.043 494.978V513.477Z" fill="#E6E6E6"/>
<path d="M395.198 219.15C412.794 219.15 427.057 204.887 427.057 187.294C427.057 169.7 412.794 155.438 395.198 155.438C377.603 155.438 363.34 169.7 363.34 187.294C363.34 204.887 377.603 219.15 395.198 219.15Z" fill="#2F2E41"/>
<path d="M404.076 156.315C409.589 156.316 415.008 157.747 419.803 160.469C424.598 163.191 428.604 167.11 431.43 171.844C434.257 176.578 435.806 181.964 435.927 187.475C436.048 192.987 434.737 198.436 432.121 203.289C434.883 199.834 436.895 195.841 438.029 191.565C439.162 187.289 439.392 182.824 438.704 178.454C438.017 174.084 436.426 169.906 434.034 166.184C431.642 162.463 428.501 159.281 424.811 156.841C421.121 154.401 416.963 152.756 412.602 152.011C408.241 151.267 403.773 151.439 399.482 152.516C395.192 153.594 391.173 155.553 387.681 158.27C384.189 160.986 381.302 164.4 379.203 168.294C382.181 164.555 385.964 161.537 390.271 159.463C394.577 157.389 399.296 156.313 404.076 156.315V156.315Z" fill="#2F2E41"/>
<path d="M335.667 187.226C387.352 187.226 429.251 145.331 429.251 93.6497C429.251 41.9687 387.352 0.072998 335.667 0.072998C283.981 0.072998 242.082 41.9687 242.082 93.6497C242.082 145.331 283.981 187.226 335.667 187.226Z" fill="#2F2E41"/>
<path d="M262.217 35.5896C278.343 17.4559 300.883 6.2961 325.082 4.46547C349.28 2.63484 373.243 10.2766 391.914 25.7779C391.149 25.0505 390.391 24.3173 389.596 23.6104C371.044 7.13379 346.708 -1.30138 321.938 0.159586C297.167 1.62055 273.991 12.858 257.505 31.4012C241.019 49.9444 232.573 74.2752 234.023 99.0439C235.474 123.813 246.702 146.991 265.24 163.484C266.035 164.191 266.852 164.857 267.664 165.532C250.081 148.807 239.685 125.906 238.668 101.662C237.652 77.4175 246.096 53.7268 262.217 35.5896Z" fill="#2F2E41"/>
<path d="M334.875 186.433C368.163 186.433 395.149 159.45 395.149 126.164C395.149 92.8775 368.163 65.8938 334.875 65.8938C301.586 65.8938 274.6 92.8775 274.6 126.164C274.6 159.45 301.586 186.433 334.875 186.433Z" fill="#FFB8B8"/>
<path d="M365.665 202.795L301.163 205.694C301.163 205.694 306.547 239.049 271.651 242.221C236.755 245.393 205.031 235.877 192.342 259.667C179.652 283.458 185.121 368.171 185.121 368.171C185.121 368.171 208.914 453.817 227.948 466.505C246.983 479.194 413.532 461.747 413.532 461.747L483.233 373.745L480.873 305.877C479.64 270.437 447.28 243.829 412.427 250.387C411.742 250.516 411.053 250.655 410.359 250.803C410.359 250.803 402.702 245.081 381.694 234.578C368.847 228.155 365.665 202.795 365.665 202.795Z" fill="#CACACA"/>
<path d="M225.65 240.635C225.65 240.635 240.981 268.449 234.636 308.1C228.292 347.751 254.913 431.612 254.913 431.612L273.947 426.854C273.947 426.854 261.257 344.38 264.43 325.347C267.602 306.315 268.477 250.151 252.616 240.635C236.754 231.119 225.65 240.635 225.65 240.635Z" fill="#2F2E41"/>
<path d="M409.242 255.219L415.909 430.82L428.599 438.75C428.599 438.75 446.84 246.045 437.323 246.045H417.958C416.812 246.045 415.677 246.271 414.618 246.709C413.559 247.148 412.597 247.791 411.787 248.601C410.976 249.412 410.333 250.374 409.895 251.432C409.456 252.491 409.23 253.626 409.23 254.772C409.23 254.921 409.234 255.07 409.242 255.219Z" fill="#2F2E41"/>
<path d="M263.636 427.647C268.016 427.647 271.567 424.097 271.567 419.717C271.567 415.337 268.016 411.787 263.636 411.787C259.256 411.787 255.705 415.337 255.705 419.717C255.705 424.097 259.256 427.647 263.636 427.647Z" fill="#72419F"/>
<path d="M422.255 435.578C426.635 435.578 430.186 432.027 430.186 427.648C430.186 423.268 426.635 419.717 422.255 419.717C417.875 419.717 414.324 423.268 414.324 427.648C414.324 432.027 417.875 435.578 422.255 435.578Z" fill="#72419F"/>
<path d="M283.322 50.8257V111.096H297.281L315.046 92.0629L312.667 111.096H374.369L370.562 92.0629L378.176 111.096H388.01V50.8257H283.322Z" fill="#2F2E41"/>
<path d="M273.805 122.198C276.433 122.198 278.564 118.293 278.564 113.475C278.564 108.657 276.433 104.752 273.805 104.752C271.177 104.752 269.047 108.657 269.047 113.475C269.047 118.293 271.177 122.198 273.805 122.198Z" fill="#FFB8B8"/>
<path d="M395.942 122.198C398.57 122.198 400.701 118.293 400.701 113.475C400.701 108.657 398.57 104.752 395.942 104.752C393.314 104.752 391.184 108.657 391.184 113.475C391.184 118.293 393.314 122.198 395.942 122.198Z" fill="#FFB8B8"/>
<path d="M527.963 532.551V537.864C527.966 539.322 527.696 540.768 527.166 542.127C526.931 542.732 526.647 543.318 526.317 543.877C525.274 545.628 523.794 547.078 522.021 548.085C520.249 549.091 518.245 549.62 516.207 549.619H125.324C123.286 549.62 121.282 549.091 119.51 548.085C117.738 547.078 116.257 545.628 115.214 543.877C114.884 543.318 114.6 542.732 114.365 542.127C113.836 540.768 113.565 539.322 113.568 537.864V532.551C113.568 531.008 113.872 529.48 114.462 528.054C115.052 526.628 115.917 525.332 117.008 524.241C118.099 523.149 119.395 522.283 120.821 521.692C122.246 521.101 123.775 520.797 125.318 520.797H147.855V518.319C147.855 518.255 147.868 518.192 147.892 518.132C147.917 518.073 147.953 518.019 147.998 517.973C148.044 517.928 148.097 517.892 148.157 517.867C148.216 517.842 148.28 517.829 148.344 517.829H160.101C160.231 517.829 160.356 517.88 160.448 517.972C160.54 518.064 160.591 518.188 160.592 518.318V520.797H167.936V518.319C167.936 518.255 167.948 518.192 167.973 518.132C167.997 518.073 168.033 518.019 168.078 517.973C168.124 517.928 168.178 517.892 168.237 517.867C168.296 517.842 168.36 517.829 168.424 517.829H180.182C180.311 517.829 180.436 517.881 180.528 517.972C180.62 518.064 180.672 518.188 180.672 518.318V520.797H188.025V518.32C188.025 518.255 188.037 518.192 188.062 518.132C188.086 518.073 188.122 518.019 188.167 517.973C188.213 517.928 188.267 517.892 188.326 517.867C188.385 517.842 188.449 517.83 188.513 517.829H200.271C200.401 517.829 200.525 517.881 200.617 517.972C200.709 518.064 200.761 518.188 200.761 518.318V520.797H208.105V518.32C208.105 518.255 208.117 518.192 208.142 518.132C208.166 518.073 208.202 518.019 208.248 517.973C208.293 517.928 208.347 517.892 208.406 517.867C208.466 517.842 208.529 517.83 208.594 517.829H220.351C220.481 517.829 220.605 517.881 220.697 517.972C220.789 518.064 220.841 518.188 220.841 518.318V520.797H228.185V518.32C228.185 518.255 228.198 518.192 228.222 518.132C228.247 518.073 228.283 518.019 228.328 517.973C228.373 517.928 228.427 517.892 228.487 517.867C228.546 517.842 228.61 517.83 228.674 517.829H240.431C240.561 517.829 240.686 517.881 240.778 517.972C240.869 518.064 240.921 518.188 240.921 518.318V520.797H248.274V518.32C248.274 518.255 248.287 518.192 248.311 518.132C248.336 518.073 248.372 518.019 248.417 517.973C248.462 517.928 248.516 517.892 248.576 517.867C248.635 517.842 248.699 517.83 248.763 517.829H260.52C260.65 517.829 260.775 517.881 260.867 517.972C260.959 518.064 261.01 518.188 261.01 518.318V520.797H268.355V518.32C268.355 518.255 268.367 518.192 268.392 518.132C268.416 518.073 268.452 518.019 268.497 517.973C268.543 517.928 268.597 517.892 268.656 517.867C268.715 517.842 268.779 517.83 268.843 517.829H360.931C360.995 517.829 361.058 517.842 361.118 517.866C361.177 517.891 361.231 517.927 361.277 517.972C361.322 518.018 361.358 518.071 361.383 518.131C361.408 518.19 361.421 518.254 361.421 518.318V520.797H368.774V518.32C368.773 518.255 368.786 518.192 368.811 518.132C368.835 518.073 368.871 518.019 368.916 517.973C368.962 517.928 369.016 517.892 369.075 517.867C369.134 517.842 369.198 517.83 369.262 517.829H381.02C381.149 517.831 381.273 517.883 381.365 517.974C381.456 518.066 381.509 518.19 381.51 518.32V520.797H388.854V518.32C388.854 518.255 388.866 518.192 388.891 518.132C388.915 518.073 388.951 518.019 388.997 517.973C389.042 517.928 389.096 517.892 389.155 517.867C389.215 517.842 389.278 517.83 389.342 517.829H401.1C401.164 517.829 401.228 517.842 401.287 517.866C401.347 517.891 401.401 517.927 401.446 517.972C401.492 518.018 401.528 518.071 401.553 518.131C401.577 518.19 401.59 518.254 401.59 518.318V520.797H408.934V518.32C408.934 518.255 408.947 518.192 408.971 518.132C408.996 518.073 409.032 518.019 409.077 517.973C409.122 517.928 409.176 517.892 409.235 517.867C409.295 517.842 409.358 517.83 409.423 517.83H421.18C421.244 517.829 421.308 517.842 421.367 517.866C421.427 517.891 421.481 517.927 421.526 517.972C421.572 518.018 421.608 518.071 421.633 518.131C421.657 518.19 421.67 518.254 421.67 518.318V520.797H429.023V518.32C429.023 518.255 429.036 518.192 429.06 518.132C429.085 518.073 429.121 518.019 429.166 517.973C429.211 517.928 429.265 517.892 429.325 517.867C429.384 517.842 429.447 517.83 429.512 517.83H441.269C441.398 517.831 441.521 517.884 441.611 517.975C441.701 518.067 441.751 518.191 441.751 518.32V520.797H449.103V518.32C449.103 518.255 449.116 518.192 449.14 518.132C449.165 518.073 449.201 518.019 449.246 517.973C449.292 517.928 449.345 517.892 449.405 517.867C449.464 517.842 449.528 517.83 449.592 517.83H461.349C461.414 517.829 461.477 517.842 461.537 517.866C461.596 517.891 461.65 517.927 461.696 517.972C461.741 518.018 461.777 518.072 461.802 518.131C461.827 518.19 461.84 518.254 461.84 518.318V520.797H469.184V518.32C469.184 518.255 469.196 518.192 469.221 518.132C469.245 518.073 469.281 518.019 469.327 517.973C469.372 517.928 469.426 517.892 469.485 517.867C469.544 517.842 469.608 517.83 469.672 517.83H481.43C481.494 517.829 481.558 517.842 481.617 517.866C481.676 517.891 481.73 517.927 481.776 517.972C481.822 518.018 481.858 518.072 481.882 518.131C481.907 518.19 481.92 518.254 481.92 518.318V520.797H516.207C519.324 520.796 522.314 522.033 524.518 524.236C526.723 526.44 527.962 529.428 527.963 532.545L527.963 532.551Z" fill="#3F3D56"/>
<path d="M814 548H0V547H814V548Z" fill="#3F3D56"/>
<path d="M496.487 308.804H138.435C137.141 308.804 135.859 309.059 134.664 309.554C133.468 310.049 132.382 310.775 131.467 311.69C130.551 312.605 129.826 313.691 129.33 314.887C128.835 316.082 128.58 317.364 128.58 318.658V518.141C128.58 520.754 129.618 523.261 131.467 525.109C133.315 526.957 135.821 527.995 138.435 527.995H496.487C499.101 527.995 501.608 526.957 503.456 525.109C505.304 523.261 506.342 520.754 506.342 518.141V318.658C506.342 316.044 505.304 313.538 503.456 311.69C501.608 309.842 499.101 308.804 496.487 308.804Z" fill="#3F3D56"/>
<path d="M317.749 400.33C329.835 400.33 339.632 390.533 339.632 378.448C339.632 366.363 329.835 356.566 317.749 356.566C305.663 356.566 295.865 366.363 295.865 378.448C295.865 390.533 305.663 400.33 317.749 400.33Z" fill="#72419F"/>
<path d="M453.219 233.887L563.692 122.551H615.848V120.801H562.961L562.705 121.06L451.975 232.657L453.219 233.887Z" fill="#3F3D56"/>
<path opacity="0.2" d="M814.444 122.502C814.444 178.813 768.796 224.462 712.485 224.462C656.174 224.462 610.525 178.813 610.525 122.502C610.525 66.1912 656.174 20.5425 712.485 20.5425C768.795 20.5425 814.444 66.1912 814.444 122.502" fill="#505050"/>
<g opacity="0.8">
<path d="M712.159 75.1924L711.529 77.3329V139.446L712.159 140.075L740.991 123.032L712.159 75.1924Z" fill="white"/>
<path d="M712.159 75.1924L683.326 123.032L712.159 140.075V109.927V75.1924Z" fill="white"/>
<path d="M712.158 149.456L711.803 149.888V172.015L712.158 173.051L741.007 132.422L712.158 149.456Z" fill="white"/>
<path d="M712.159 173.051V149.456L683.326 132.422L712.159 173.051Z" fill="white"/>
<path d="M712.158 140.075L740.99 123.033L712.158 109.927V140.075Z" fill="white"/>
<path d="M683.326 123.032L712.158 140.075V109.927L683.326 123.032Z" fill="white"/>
</g>
<path d="M349.826 380.001C349.826 397.581 335.575 411.832 317.995 411.832C300.415 411.832 286.164 397.581 286.164 380.001C286.164 362.421 300.415 348.169 317.995 348.169C335.575 348.169 349.826 362.421 349.826 380.001" fill="#72419F"/>
<g opacity="0.8">
<path d="M317.894 365.231L317.697 365.899V385.29L317.894 385.487L326.895 380.166L317.894 365.231Z" fill="white"/>
<path d="M317.894 365.231L308.893 380.166L317.894 385.487V376.075V365.231Z" fill="white"/>
<path d="M317.894 388.415L317.783 388.55V395.458L317.894 395.782L326.901 383.097L317.894 388.415Z" fill="white"/>
<path d="M317.894 395.782V388.415L308.893 383.097L317.894 395.782Z" fill="white"/>
<path d="M317.895 385.487L326.896 380.166L317.895 376.075V385.487Z" fill="white"/>
<path d="M308.893 380.166L317.894 385.487V376.075L308.893 380.166Z" fill="white"/>
</g>
</g>
<defs>
<clipPath id="clip0_216_851">
<rect width="850" height="550" fill="white"/>
</clipPath>
</defs>
</svg>
