<svg viewBox="0 0 256 256" fill="none" xmlns="http://www.w3.org/2000/svg">
<path d="M255.306 128.003C255.306 198.323 198.301 255.329 127.981 255.329C57.6611 255.329 0.655884 198.323 0.655884 128.003C0.655884 57.683 57.6611 0.677734 127.981 0.677734C198.3 0.677734 255.306 57.683 255.306 128.003" fill="#888888"/>
<g opacity="0.8">
<path d="M127.574 68.9229L126.788 71.5959V149.162L127.574 149.947L163.58 128.664L127.574 68.9229Z" fill="white"/>
<path d="M127.575 68.9229L91.5692 128.664L127.575 149.947V112.299V68.9229Z" fill="white"/>
<path d="M127.574 161.662L127.131 162.202V189.833L127.574 191.127L163.601 140.39L127.574 161.662Z" fill="white"/>
<path d="M127.575 191.127V161.662L91.5692 140.39L127.575 191.127Z" fill="white"/>
<path d="M127.574 149.947L163.579 128.665L127.574 112.3V149.947Z" fill="white"/>
<path d="M91.5692 128.664L127.574 149.947V112.299L91.5692 128.664Z" fill="white"/>
</g>
</svg>
