<svg viewBox="0 0 341 341" fill="none" xmlns="http://www.w3.org/2000/svg">
<circle cx="172.5" cy="170.5" r="94.5" fill="#E0C3FC"/>
<circle cx="172.5" cy="170.5" r="94.5" fill="#FAFAFA" fill-opacity="0.43"/>
<path d="M211.909 150.168V147.514C211.908 145.56 211.133 143.687 209.753 142.305C208.373 140.924 206.501 140.148 204.55 140.148H99.8704C97.9191 140.148 96.0477 140.924 94.6678 142.305C93.2878 143.687 92.5123 145.56 92.5117 147.514V152.407L211.909 150.168Z" fill="#33323D"/>
<path d="M128.991 137.037C128.991 137.037 128.693 155.597 131.979 161.704C135.266 167.811 136.675 194.378 136.675 194.378C136.675 194.378 171.129 197.946 195.138 190.104C219.148 182.262 270.236 179.055 270.236 179.055L261.627 120.958C261.627 120.958 219.095 118.227 194.899 129.78C170.704 141.334 128.991 137.037 128.991 137.037Z" fill="#8DD070"/>
<path opacity="0.1" d="M128.991 137.037C128.991 137.037 128.693 155.597 131.979 161.704C135.266 167.811 136.675 194.378 136.675 194.378C136.675 194.378 171.129 197.946 195.138 190.104C219.148 182.262 270.236 179.055 270.236 179.055L261.627 120.958C261.627 120.958 219.095 118.227 194.899 129.78C170.704 141.334 128.991 137.037 128.991 137.037Z" fill="black"/>
<path d="M136.618 143.817C136.618 143.817 135.541 159.131 138.245 164.025C140.949 168.918 141.074 190.762 141.074 190.762C141.074 190.762 172.082 192.202 194.139 184.685C216.196 177.168 262.546 172.292 262.546 172.292L257.279 124.78C257.279 124.78 218.927 124.385 196.544 134.966C174.161 145.548 136.618 143.817 136.618 143.817Z" fill="#8DD070"/>
<path opacity="0.1" d="M196.204 175.986C200.616 175.436 203.237 167.31 202.058 157.836C200.88 148.362 196.348 141.128 191.936 141.678C187.524 142.228 184.903 150.354 186.081 159.828C187.26 169.302 191.792 176.536 196.204 175.986Z" fill="black"/>
<path opacity="0.2" d="M238.309 92.656C238.309 92.656 196.989 103.126 177.504 121.556C158.019 139.986 117 148.712 117 148.712C117 148.712 122.404 166.467 127.402 171.27C132.4 176.074 141.88 200.929 141.88 200.929C141.88 200.929 175.765 193.737 196.21 178.89C216.656 164.044 264.306 145.294 264.306 145.294L238.309 92.656Z" fill="black"/>
<path d="M116.379 146.054C116.379 146.054 121.781 163.811 126.775 168.614C131.769 173.418 141.253 198.271 141.253 198.271C141.253 198.271 175.142 191.081 195.589 176.234C216.037 161.388 263.683 142.644 263.683 142.644L237.686 90C237.686 90 196.368 100.47 176.883 118.9C157.398 137.33 116.379 146.054 116.379 146.054Z" fill="#8DD070"/>
<path opacity="0.1" d="M116.379 146.054C116.379 146.054 121.781 163.811 126.775 168.614C131.769 173.418 141.253 198.271 141.253 198.271C141.253 198.271 175.142 191.081 195.589 176.234C216.037 161.388 263.683 142.644 263.683 142.644L237.686 90C237.686 90 196.368 100.47 176.883 118.9C157.398 137.33 116.379 146.054 116.379 146.054Z" fill="black"/>
<path d="M125.707 150.165C125.707 150.165 129.376 165.074 133.45 168.899C137.524 172.723 144.334 193.472 144.334 193.472C144.334 193.472 174.285 185.313 192.974 171.382C211.664 157.45 254.288 138.588 254.288 138.588L234.715 94.9723C234.715 94.9723 198.094 106.376 180.033 123.325C161.971 140.274 125.707 150.165 125.707 150.165Z" fill="#8DD070"/>
<path opacity="0.1" d="M192.285 162.475C196.315 160.596 196.319 152.057 192.294 143.402C188.269 134.747 181.738 129.254 177.708 131.133C173.677 133.013 173.673 141.552 177.699 150.207C181.724 158.861 188.255 164.354 192.285 162.475Z" fill="black"/>
<path opacity="0.1" d="M214.736 152.772V226.491C214.736 227.329 214.571 228.158 214.251 228.931C213.931 229.705 213.462 230.407 212.871 230.999C212.279 231.591 211.577 232.061 210.804 232.381C210.032 232.701 209.204 232.866 208.367 232.865H98.8837C97.1956 232.865 95.5769 232.193 94.3834 230.998C93.19 229.802 92.5195 228.181 92.5195 226.491V145.341C95.6568 146.507 95.6568 146.507 98.8837 146.409H208.367C210.054 146.409 211.672 147.079 212.866 148.272C214.06 149.465 214.733 151.083 214.736 152.772V152.772Z" fill="black"/>
<path d="M214.736 153.71V227.429C214.735 229.12 214.064 230.741 212.87 231.937C211.676 233.132 210.056 233.803 208.367 233.803H98.8837C97.1956 233.803 95.5769 233.131 94.3834 231.936C93.19 230.74 92.5195 229.12 92.5195 227.429V146.276C95.6568 147.441 95.6568 147.441 98.8837 147.345H208.367C210.055 147.345 211.673 148.015 212.867 149.209C214.061 150.402 214.733 152.021 214.736 153.71V153.71Z" fill="#504F60"/>
<path opacity="0.1" d="M214.424 180.965V204.54H191.588C188.493 204.498 185.539 203.238 183.365 201.032C181.192 198.826 179.973 195.852 179.973 192.753C179.973 189.654 181.192 186.679 183.365 184.473C185.539 182.267 188.493 181.007 191.588 180.965H214.424Z" fill="black"/>
<path d="M214.735 180.337V203.916H191.899C188.804 203.874 185.85 202.614 183.676 200.408C181.502 198.202 180.283 195.228 180.283 192.129C180.283 189.03 181.502 186.055 183.676 183.849C185.85 181.643 188.804 180.383 191.899 180.341L214.735 180.337Z" fill="#33323D"/>
<path opacity="0.1" d="M192.995 197.35C195.53 197.35 197.586 195.292 197.586 192.754C197.586 190.215 195.53 188.157 192.995 188.157C190.46 188.157 188.404 190.215 188.404 192.754C188.404 195.292 190.46 197.35 192.995 197.35Z" fill="black"/>
<path d="M193.305 196.726C195.841 196.726 197.896 194.668 197.896 192.13C197.896 189.591 195.841 187.534 193.305 187.534C190.77 187.534 188.715 189.591 188.715 192.13C188.715 194.668 190.77 196.726 193.305 196.726Z" fill="#E0C3FC"/>
<path d="M193.305 196.726C195.841 196.726 197.896 194.668 197.896 192.13C197.896 189.591 195.841 187.534 193.305 187.534C190.77 187.534 188.715 189.591 188.715 192.13C188.715 194.668 190.77 196.726 193.305 196.726Z" fill="#FAFAFA" fill-opacity="0.43"/>
<path d="M170.416 42.9163C187.16 42.9163 203.739 46.2141 219.208 52.6216C234.677 59.0291 248.733 68.4207 260.572 80.2601C272.412 92.0996 281.803 106.155 288.211 121.624C294.618 137.093 297.916 153.673 297.916 170.416C297.916 187.16 294.618 203.739 288.211 219.208C281.803 234.677 272.412 248.733 260.572 260.572C248.733 272.412 234.677 281.803 219.208 288.211C203.739 294.618 187.16 297.916 170.416 297.916C136.601 297.916 104.171 284.483 80.2599 260.572C56.349 236.661 42.916 204.231 42.916 170.416C42.916 136.601 56.349 104.171 80.2599 80.2601C104.171 56.3493 136.601 42.9163 170.416 42.9163Z" stroke="#72419F" stroke-width="15" stroke-linecap="round" stroke-linejoin="round"/>
<line x1="77.6967" y1="263.697" x2="262.697" y2="78.6967" stroke="#72419F" stroke-width="15"/>
</svg>
