<svg viewBox="0 0 138 171" fill="none" xmlns="http://www.w3.org/2000/svg">
<path d="M137.488 4.17311C136.97 2.944 136.104 1.89365 134.995 1.15196C133.887 0.410266 132.585 0.00976745 131.251 0H6.74877C4.95919 0.000989162 3.24318 0.712329 1.97776 1.97776C0.712329 3.24318 0.000989162 4.95918 0 6.74877V164.25C0.000996299 166.04 0.712357 167.756 1.97778 169.021C3.24321 170.287 4.95919 170.998 6.74877 170.999H131.251C133.04 170.996 134.755 170.285 136.021 169.02C137.286 167.754 137.997 166.039 138 164.25V6.74877C138.003 5.86467 137.829 4.98892 137.488 4.17311ZM136.501 164.25C136.5 165.642 135.946 166.976 134.962 167.961C133.977 168.945 132.643 169.498 131.251 169.5H6.74877C5.35644 169.5 4.02121 168.947 3.03668 167.962C2.05215 166.978 1.49892 165.642 1.49863 164.25V6.74877C1.50045 5.35691 2.05418 4.02259 3.03838 3.0384C4.02258 2.05422 5.35691 1.5005 6.74877 1.49872H131.251C132.3 1.5027 133.323 1.819 134.191 2.40722C135.059 2.99545 135.732 3.82894 136.124 4.80133C136.201 4.9951 136.267 5.19283 136.322 5.39365C136.441 5.83549 136.501 6.29112 136.501 6.74877V164.25Z" fill="#3F3D56"/>
<path d="M111.5 37.1862H74.0001C73.2044 37.1862 72.4413 36.8701 71.8787 36.3075C71.3161 35.7449 71 34.9818 71 34.1861C71 33.3905 71.3161 32.6274 71.8787 32.0648C72.4413 31.5022 73.2044 31.1861 74.0001 31.1861H111.5C112.296 31.1861 113.059 31.5022 113.622 32.0648C114.184 32.6274 114.5 33.3905 114.5 34.1861C114.5 34.9818 114.184 35.7449 113.622 36.3075C113.059 36.8701 112.296 37.1862 111.5 37.1862Z" fill="#3F3D56"/>
<path d="M111.5 52.9362H74.0001C73.2044 52.9362 72.4413 52.6201 71.8787 52.0575C71.3161 51.4949 71 50.7318 71 49.9362C71 49.1405 71.3161 48.3775 71.8787 47.8148C72.4413 47.2522 73.2044 46.9361 74.0001 46.9361H111.5C112.296 46.9361 113.059 47.2522 113.622 47.8148C114.184 48.3775 114.5 49.1405 114.5 49.9362C114.5 50.7318 114.184 51.4949 113.622 52.0575C113.059 52.6201 112.296 52.9362 111.5 52.9362Z" fill="#3F3D56"/>
<path d="M54.7588 61.9048H27.3536C26.4588 61.9038 25.6009 61.5479 24.9681 60.9152C24.3354 60.2825 23.9795 59.4246 23.9785 58.5298V26.1898C23.9795 25.2949 24.3354 24.4371 24.9681 23.8043C25.6009 23.1716 26.4588 22.8157 27.3536 22.8147H54.7588C55.6536 22.8157 56.5115 23.1716 57.1442 23.8043C57.777 24.4371 58.1328 25.2949 58.1338 26.1898V58.5298C58.1328 59.4246 57.777 60.2825 57.1442 60.9152C56.5115 61.5479 55.6536 61.9038 54.7588 61.9048Z" fill="#72419F"/>
<path d="M111.242 85.1863H26.4915C26.0971 85.187 25.7065 85.1099 25.3419 84.9595C24.9773 84.809 24.646 84.5881 24.3668 84.3095C24.0877 84.0308 23.8663 83.6999 23.7152 83.3356C23.5641 82.9713 23.4863 82.5807 23.4863 82.1863C23.4863 81.7919 23.5641 81.4014 23.7152 81.0371C23.8663 80.6728 24.0877 80.3418 24.3668 80.0632C24.646 79.7845 24.9773 79.5637 25.3419 79.4132C25.7065 79.2627 26.0971 79.1856 26.4915 79.1863H111.242C112.037 79.1877 112.799 79.5044 113.36 80.0668C113.922 80.6293 114.237 81.3916 114.237 82.1863C114.237 82.9811 113.922 83.7434 113.36 84.3058C112.799 84.8683 112.037 85.185 111.242 85.1863Z" fill="#CCCCCC"/>
<path d="M111.242 100.937H26.4915C26.0971 100.938 25.7065 100.861 25.3419 100.71C24.9773 100.56 24.646 100.339 24.3668 100.06C24.0877 99.7816 23.8663 99.4507 23.7152 99.0864C23.5641 98.7221 23.4863 98.3315 23.4863 97.9371C23.4863 97.5427 23.5641 97.1522 23.7152 96.7879C23.8663 96.4236 24.0877 96.0926 24.3668 95.814C24.646 95.5353 24.9773 95.3144 25.3419 95.164C25.7065 95.0135 26.0971 94.9365 26.4915 94.9371H111.242C112.038 94.9371 112.801 95.2532 113.364 95.8158C113.926 96.3784 114.242 97.1415 114.242 97.9371C114.242 98.7328 113.926 99.4958 113.364 100.058C112.801 100.621 112.038 100.937 111.242 100.937Z" fill="#CCCCCC"/>
<path d="M111.242 116.687H26.4915C26.0971 116.688 25.7065 116.611 25.3419 116.46C24.9773 116.31 24.646 116.089 24.3668 115.81C24.0877 115.532 23.8663 115.201 23.7152 114.836C23.5641 114.472 23.4863 114.081 23.4863 113.687C23.4863 113.293 23.5641 112.902 23.7152 112.538C23.8663 112.174 24.0877 111.843 24.3668 111.564C24.646 111.285 24.9773 111.064 25.3419 110.914C25.7065 110.763 26.0971 110.686 26.4915 110.687H111.242C112.038 110.687 112.801 111.003 113.364 111.566C113.926 112.128 114.242 112.891 114.242 113.687C114.242 114.483 113.926 115.246 113.364 115.808C112.801 116.371 112.038 116.687 111.242 116.687Z" fill="#CCCCCC"/>
<path d="M111.242 132.437H26.4915C26.0971 132.438 25.7065 132.361 25.3419 132.21C24.9773 132.06 24.646 131.839 24.3668 131.56C24.0877 131.282 23.8663 130.951 23.7152 130.586C23.5641 130.222 23.4863 129.832 23.4863 129.437C23.4863 129.043 23.5641 128.652 23.7152 128.288C23.8663 127.924 24.0877 127.593 24.3668 127.314C24.646 127.035 24.9773 126.814 25.3419 126.664C25.7065 126.514 26.0971 126.436 26.4915 126.437H111.242C112.038 126.437 112.801 126.753 113.364 127.316C113.926 127.878 114.242 128.642 114.242 129.437C114.242 130.233 113.926 130.996 113.364 131.559C112.801 132.121 112.038 132.437 111.242 132.437Z" fill="#CCCCCC"/>
<path d="M111.242 148.187H26.4915C26.0971 148.188 25.7065 148.111 25.3419 147.96C24.9773 147.81 24.646 147.589 24.3668 147.31C24.0877 147.032 23.8663 146.701 23.7152 146.336C23.5641 145.972 23.4863 145.582 23.4863 145.187C23.4863 144.793 23.5641 144.402 23.7152 144.038C23.8663 143.674 24.0877 143.343 24.3668 143.064C24.646 142.785 24.9773 142.564 25.3419 142.414C25.7065 142.264 26.0971 142.186 26.4915 142.187H111.242C112.037 142.189 112.799 142.505 113.36 143.068C113.922 143.63 114.237 144.392 114.237 145.187C114.237 145.982 113.922 146.744 113.36 147.307C112.799 147.869 112.037 148.186 111.242 148.187Z" fill="#CCCCCC"/>
</svg>
