<svg viewBox="0 0 341 341" fill="none" xmlns="http://www.w3.org/2000/svg">
<circle cx="169.5" cy="170.5" r="94.5" fill="#E0C3FC"/>
<circle cx="169.5" cy="170.5" r="94.5" fill="#FAFAFA" fill-opacity="0.43"/>
<path d="M170.715 83L117 172.153L170.898 203.876L170.715 83Z" fill="#8C8C8C"/>
<path d="M223 172.153L169.102 83L169.284 203.876L223 172.153Z" fill="#333333"/>
<path d="M117 172.298L170.833 147.948L170.898 203.876L117 172.298Z" fill="#383838"/>
<path d="M223 172.406L170.898 147.948L171.011 202.072L223 172.406Z" fill="#141414"/>
<path d="M223 182.227L169.102 214.073V258L223 182.227Z" fill="#333333"/>
<path d="M117 182.227L169.102 214.073V258L117 182.227Z" fill="#8C8C8C"/>
<path d="M297.916 170.416C297.916 187.16 294.618 203.739 288.211 219.208C281.803 234.677 272.412 248.733 260.572 260.572C248.733 272.412 234.677 281.804 219.208 288.211C203.739 294.618 187.16 297.916 170.416 297.916C153.672 297.916 137.093 294.618 121.624 288.211C106.155 281.804 92.0994 272.412 80.2599 260.572C68.4204 248.733 59.0288 234.677 52.6214 219.208C46.2139 203.739 42.916 187.16 42.916 170.416C42.916 136.601 56.349 104.171 80.2599 80.2602C104.171 56.3493 136.601 42.9163 170.416 42.9163C204.231 42.9163 236.661 56.3493 260.572 80.2602C284.483 104.171 297.916 136.601 297.916 170.416Z" stroke="#72419F" stroke-width="15" stroke-linecap="round" stroke-linejoin="round"/>
<line x1="79.6967" y1="259.697" x2="264.697" y2="74.6967" stroke="#72419F" stroke-width="15"/>
</svg>
