<svg viewBox="0 0 340 340" fill="none" xmlns="http://www.w3.org/2000/svg">
<circle cx="169.084" cy="170.083" r="94.5" fill="#E0C3FC"/>
<circle cx="169.084" cy="170.083" r="94.5" fill="#FAFAFA" fill-opacity="0.43"/>
<path d="M297.5 170C297.5 186.744 294.202 203.323 287.795 218.792C281.387 234.261 271.996 248.317 260.156 260.156C248.317 271.996 234.261 281.387 218.792 287.795C203.323 294.202 186.744 297.5 170 297.5C153.256 297.5 136.677 294.202 121.208 287.795C105.739 281.387 91.6834 271.996 79.8439 260.156C68.0044 248.317 58.6128 234.261 52.2054 218.792C45.7979 203.323 42.5 186.744 42.5 170C42.5 136.185 55.933 103.755 79.8439 79.8439C103.755 55.933 136.185 42.5 170 42.5C203.815 42.5 236.245 55.933 260.156 79.8439C284.067 103.755 297.5 136.185 297.5 170Z" stroke="#72419F" stroke-width="15" stroke-linecap="round" stroke-linejoin="round"/>
<path d="M111.194 110.71V128.794L149.777 124.368H163.992V153.707L140.075 161.927L107.584 170.653L112.435 188.357L143.572 174.952L164.105 167.87V215.926H149.89L111.307 211.5V229.583H229.087V211.5L190.504 215.926H176.063V167.87L196.483 174.826L227.733 188.231L232.584 170.526L200.206 161.8L176.176 153.58V124.241H190.391L228.974 128.667V110.583L111.194 110.71Z" fill="#504F60"/>
</svg>
