<svg viewBox="0 0 340 340" fill="none" xmlns="http://www.w3.org/2000/svg">
<circle cx="170.084" cy="170.083" r="94.5" fill="#E0C3FC"/>
<circle cx="170.084" cy="170.083" r="94.5" fill="#FAFAFA" fill-opacity="0.43"/>
<path d="M170 42.5C186.744 42.5 203.323 45.7979 218.792 52.2053C234.261 58.6128 248.317 68.0044 260.156 79.8439C271.996 91.6834 281.387 105.739 287.795 121.208C294.202 136.677 297.5 153.256 297.5 170C297.5 186.744 294.202 203.323 287.795 218.792C281.387 234.261 271.996 248.317 260.156 260.156C248.317 271.996 234.261 281.387 218.792 287.795C203.323 294.202 186.744 297.5 170 297.5C136.185 297.5 103.755 284.067 79.8439 260.156C55.933 236.245 42.5 203.815 42.5 170C42.5 136.185 55.933 103.755 79.8439 79.8439C103.755 55.933 136.185 42.5 170 42.5Z" stroke="#72419F" stroke-width="15" stroke-linecap="round" stroke-linejoin="round"/>
<path d="M228.585 235.79V201.745H191.51C181.427 201.745 172.088 207.038 166.924 215.679L154.904 235.79H228.585Z" fill="#504F60"/>
<path d="M110.584 105V139.045H208.237L228.584 105H110.584Z" fill="#504F60"/>
<path d="M157.319 158.208L110.691 235.79H150.417L206.176 142.974H184.239C173.205 142.974 162.983 148.758 157.319 158.208Z" fill="#504F60"/>
</svg>
