<?xml version="1.0" encoding="utf-8"?>
<svg viewBox="0 0 500 500" fill="currentColor" stroke="currentColor" xmlns="http://www.w3.org/2000/svg">
  <ellipse style="fill-opacity: 0; paint-order: fill; fill: rgba(0, 0, 0, 0); stroke-width: 35px;" cx="250" cy="250" rx="219.713" ry="219.713"/>
  <path d="M 165.15274810791016 359.3240051269531 L 125.77774810791016 359.3240051269531 L 125.77774810791016 131.82400512695312 L 165.15274810791016 131.82400512695312 Z M 213.74649047851562 359.3240051269531 L 213.74649047851562 131.82400512695312 L 280.9339904785156 131.82400512695312 Q 311.0902404785156 131.82400512695312 334.4496154785156 145.26150512695312 Q 357.8089904785156 158.69900512695312 370.6214904785156 183.38650512695312 Q 383.4339904785156 208.07400512695312 383.4339904785156 239.94900512695312 L 383.4339904785156 251.35525512695312 Q 383.4339904785156 283.6990051269531 370.5433654785156 308.2302551269531 Q 357.6527404785156 332.7615051269531 333.8246154785156 346.0427551269531 Q 309.9964904785156 359.3240051269531 279.2152404785156 359.3240051269531 Z M 253.27774047851562 163.69900512695312 L 253.27774047851562 327.7615051269531 L 279.0589904785156 327.7615051269531 Q 310.1527404785156 327.7615051269531 326.7933654785156 308.3083801269531 Q 343.4339904785156 288.8552551269531 343.7464904785156 252.44900512695312 L 343.7464904785156 239.79275512695312 Q 343.7464904785156 202.76150512695312 327.6527404785156 183.23025512695312 Q 311.5589904785156 163.69900512695312 280.9339904785156 163.69900512695312 Z" transform="matrix(1, 0, 0, 1, 0, 0)" style="white-space: pre;"/>
</svg>